<svg width="28" height="24" viewBox="0 0 28 24" fill="none" xmlns="http://www.w3.org/2000/svg">
<path d="M1.5 1H5.5L8.5 18H24.5M8.5 12.6667H24.09C24.2056 12.6667 24.3177 12.6267 24.4072 12.5535C24.4966 12.4802 24.5579 12.3782 24.5806 12.2648L26.3806 3.26479C26.3951 3.19222 26.3934 3.11733 26.3755 3.04552C26.3575 2.97372 26.3239 2.90679 26.2769 2.84956C26.23 2.79234 26.1709 2.74625 26.104 2.71462C26.0371 2.68299 25.964 2.66662 25.89 2.66667H6.5M10.5 22C10.5 22.5523 10.0523 23 9.5 23C8.94772 23 8.5 22.5523 8.5 22C8.5 21.4477 8.94772 21 9.5 21C10.0523 21 10.5 21.4477 10.5 22ZM24.5 22C24.5 22.5523 24.0523 23 23.5 23C22.9477 23 22.5 22.5523 22.5 22C22.5 21.4477 22.9477 21 23.5 21C24.0523 21 24.5 21.4477 24.5 22Z" stroke="#432407" stroke-width="2" stroke-linecap="round" stroke-linejoin="round"/>
</svg>
