<svg width="20" height="20" viewBox="0 0 20 20" fill="none" xmlns="http://www.w3.org/2000/svg">
<path d="M10 19.375C7.39583 19.375 5.18229 18.4635 3.35938 16.6406C1.53646 14.8177 0.625 12.6042 0.625 10C0.625 7.39583 1.53646 5.18229 3.35938 3.35938C5.18229 1.53646 7.39583 0.625 10 0.625C10.2431 0.625 10.4818 0.633681 10.7161 0.651042C10.9505 0.668403 11.1806 0.694444 11.4062 0.729167C10.6944 1.23264 10.1259 1.88802 9.70052 2.69531C9.27517 3.5026 9.0625 4.375 9.0625 5.3125C9.0625 6.875 9.60938 8.20312 10.7031 9.29687C11.7969 10.3906 13.125 10.9375 14.6875 10.9375C15.6424 10.9375 16.5191 10.7248 17.3177 10.2995C18.1163 9.87413 18.7674 9.30556 19.2708 8.59375C19.3056 8.81944 19.3316 9.04948 19.349 9.28385C19.3663 9.51823 19.375 9.75694 19.375 10C19.375 12.6042 18.4635 14.8177 16.6406 16.6406C14.8177 18.4635 12.6042 19.375 10 19.375ZM10 17.2917C11.5278 17.2917 12.8993 16.8707 14.1146 16.0286C15.3299 15.1866 16.2153 14.0885 16.7708 12.7344C16.4236 12.8212 16.0764 12.8906 15.7292 12.9427C15.3819 12.9948 15.0347 13.0208 14.6875 13.0208C12.5521 13.0208 10.7335 12.27 9.23177 10.7682C7.73003 9.26649 6.97917 7.44792 6.97917 5.3125C6.97917 4.96528 7.00521 4.61806 7.05729 4.27083C7.10937 3.92361 7.17882 3.57639 7.26562 3.22917C5.91146 3.78472 4.81337 4.67014 3.97135 5.88542C3.12934 7.10069 2.70833 8.47222 2.70833 10C2.70833 12.0139 3.42014 13.7326 4.84375 15.1562C6.26736 16.5799 7.98611 17.2917 10 17.2917Z" fill="#432407"/>
</svg>
