<svg width="19" height="25" viewBox="0 0 19 25" fill="none" xmlns="http://www.w3.org/2000/svg">
<path d="M9.5 0.982666C6.98044 0.982666 4.56408 1.99417 2.78249 3.79467C1.00089 5.59516 0 8.03716 0 10.5834C0 17.064 8.37188 24.3846 8.72813 24.6966C8.94322 24.8825 9.21696 24.9847 9.5 24.9847C9.78304 24.9847 10.0568 24.8825 10.2719 24.6966C10.6875 24.3846 19 17.064 19 10.5834C19 8.03716 17.9991 5.59516 16.2175 3.79467C14.4359 1.99417 12.0196 0.982666 9.5 0.982666ZM9.5 22.1644C6.97062 19.7642 2.375 14.5918 2.375 10.5834C2.375 8.67373 3.12567 6.84223 4.46186 5.49186C5.79806 4.14149 7.61033 3.38286 9.5 3.38286C11.3897 3.38286 13.2019 4.14149 14.5381 5.49186C15.8743 6.84223 16.625 8.67373 16.625 10.5834C16.625 14.5918 12.0294 19.7762 9.5 22.1644ZM9.5 5.78305C8.56054 5.78305 7.64218 6.06459 6.86104 6.59206C6.07991 7.11954 5.47109 7.86925 5.11157 8.74641C4.75206 9.62357 4.65799 10.5888 4.84127 11.5199C5.02455 12.4511 5.47694 13.3065 6.14124 13.9778C6.80554 14.6492 7.65191 15.1064 8.57332 15.2916C9.49473 15.4768 10.4498 15.3817 11.3177 15.0184C12.1857 14.6551 12.9275 14.0398 13.4495 13.2504C13.9714 12.461 14.25 11.5329 14.25 10.5834C14.25 9.3103 13.7496 8.0893 12.8588 7.18905C11.968 6.28881 10.7598 5.78305 9.5 5.78305ZM9.5 12.9836C9.03027 12.9836 8.57109 12.8429 8.18052 12.5791C7.78995 12.3154 7.48554 11.9405 7.30579 11.502C7.12603 11.0634 7.07899 10.5808 7.17063 10.1152C7.26227 9.64959 7.48847 9.22192 7.82062 8.88625C8.15277 8.55057 8.57596 8.32198 9.03666 8.22937C9.49737 8.13675 9.9749 8.18429 10.4089 8.36595C10.8428 8.54761 11.2138 8.85525 11.4747 9.24996C11.7357 9.64467 11.875 10.1087 11.875 10.5834C11.875 11.22 11.6248 11.8305 11.1794 12.2806C10.734 12.7308 10.1299 12.9836 9.5 12.9836Z" fill="#432407"/>
</svg>
