<svg width="105" height="105" viewBox="0 0 105 105" fill="none" xmlns="http://www.w3.org/2000/svg">
<circle cx="52.5" cy="52.5" r="51.5" fill="#D6E2E9" stroke="#42569B" stroke-width="2"/>
<path fill-rule="evenodd" clip-rule="evenodd" d="M40.0522 40.9835H26.847C25.8219 40.9835 25 41.8101 25 42.8305V50.2185C25 51.239 25.8219 52.0655 26.847 52.0655H27.0409L29.6267 75.3571C29.7283 76.2926 30.5225 77 31.4645 77H73.9454C74.8874 77 75.6816 76.2926 75.7832 75.3571L78.369 52.0655H78.5629C79.588 52.0655 80.4099 51.239 80.4099 50.2185V42.8305C80.4099 41.8101 79.588 40.9835 78.5629 40.9835L65.634 40.9831L61.0165 30.3628C60.6471 29.4116 60.1207 28.7352 59.1695 29.1009C58.2183 29.4675 58.3475 30.3351 58.7077 31.2863L62.8635 40.9835L43.0082 40.9831L46.7022 31.2863C47.0624 30.3351 47.1917 29.4675 46.2405 29.1008C45.2893 28.7351 44.7629 29.4117 44.3935 30.3629L40.0522 40.9835ZM29.6267 52.0655H75.7832L73.4837 74.6909L31.9262 74.6909L29.6267 52.0655ZM47.6257 57.6065V67.765C47.6257 68.7846 47.9951 69.612 49.011 69.612C50.0268 69.612 50.3962 68.7846 50.3962 67.765V57.6065C50.3962 56.587 50.0268 55.7595 49.011 55.7595C47.9951 55.7595 47.6257 56.587 47.6257 57.6065ZM55.0137 57.6065V67.765C55.0137 68.7846 55.3831 69.612 56.399 69.612C57.4148 69.612 57.7842 68.7846 57.7842 67.765V57.6065C57.7842 56.587 57.4148 55.7595 56.399 55.7595C55.3831 55.7595 55.0137 56.587 55.0137 57.6065ZM40.2377 57.6065V67.765C40.2377 68.7846 40.6071 69.612 41.623 69.612C42.6388 69.612 43.0082 68.7846 43.0082 67.765V57.6065C43.0082 56.587 42.6388 55.7595 41.623 55.7595C40.6071 55.7595 40.2377 56.587 40.2377 57.6065ZM62.4017 57.6065V67.765C62.4017 68.7846 62.7711 69.612 63.787 69.612C64.8028 69.612 65.1722 68.7846 65.1722 67.765V57.6065C65.1722 56.587 64.8028 55.7595 63.787 55.7595C62.7711 55.7595 62.4017 56.587 62.4017 57.6065ZM78.1012 43.2918H27.3087V49.7563H78.1012V43.2918Z" fill="black"/>
</svg>
