<svg width="105" height="105" viewBox="0 0 105 105" fill="none" xmlns="http://www.w3.org/2000/svg">
<circle cx="52.5" cy="52.5" r="51.5" fill="#D6E2E9" stroke="#42569B" stroke-width="2"/>
<path d="M19.4785 47.96C19.1719 47.96 18.8778 48.0785 18.6609 48.2895C18.4441 48.5005 18.3223 48.7867 18.3223 49.085V71.9968C18.3223 72.2951 18.4441 72.5813 18.6609 72.7923C18.8778 73.0032 19.1719 73.1218 19.4785 73.1218H32.1302C32.4369 73.1218 32.731 73.0032 32.9478 72.7923C33.1646 72.5813 33.2865 72.2951 33.2865 71.9968V70.3318L54.8852 77.4508C54.9149 77.461 54.945 77.47 54.9754 77.4778C57.4891 78.0988 60.3913 77.7253 62.5835 76.292L84.95 64.466C84.9546 64.466 84.9593 64.466 84.9639 64.466L85.5166 64.1668C86.4207 63.6695 87.1064 62.8675 87.4442 61.912C87.7821 60.9565 87.7487 59.9137 87.3504 58.9805C86.6404 57.3493 85.246 56.6045 84.1568 56.4493V56.4448C83.4924 56.3532 82.8154 56.4031 82.1727 56.591C82.1341 56.6041 82.0963 56.6191 82.0594 56.636L69.7291 62.198C69.7453 62.0473 69.78 61.901 69.78 61.7458C69.78 59.2168 67.6294 57.1625 65.0186 57.1625H54.7511C54.7095 57.0883 54.6586 56.9825 54.617 56.9105C54.0681 55.9435 53.3771 55.0597 52.5658 54.287C50.3128 52.152 47.2886 50.9627 44.1436 50.975H33.2865V49.085C33.2865 48.7867 33.1646 48.5005 32.9478 48.2895C32.731 48.0785 32.4369 47.96 32.1302 47.96H19.4785ZM20.6348 50.21H30.974V70.8718H20.6348V50.21ZM33.2841 53.225H44.1436C45.7075 53.2178 47.2498 53.5799 48.6382 54.2803C50.0265 54.9806 51.2196 55.9982 52.1148 57.2458C52.286 57.4865 52.4478 57.7408 52.5935 58.0018C52.7762 58.319 52.8988 58.5103 52.9959 58.7308L53.2942 59.4125H65.0186C66.4061 59.4125 67.4675 60.443 67.4675 61.7458C67.4675 62.7043 66.8848 63.5075 66.0268 63.8675L65.9575 63.899C65.659 64.0163 65.3404 64.0774 65.0186 64.079H48.9351V66.329H65.0186C65.4857 66.329 65.9274 66.239 66.3552 66.1175C66.5099 66.1071 66.6609 66.0666 66.7992 65.9983L82.9266 58.7218C82.9404 58.7218 83.3336 58.5958 83.8215 58.6655C84.3187 58.733 84.7928 58.868 85.2229 59.8513C85.4096 60.2745 85.4262 60.7505 85.2695 61.1851C85.1128 61.6196 84.7941 61.9811 84.3765 62.198L83.8354 62.4973L61.388 74.366C61.3554 74.3833 61.3238 74.4021 61.2931 74.4223C59.7669 75.4213 57.3989 75.7498 55.5489 75.293H55.5443L33.2865 67.958L33.2841 53.225Z" fill="black"/>
<path fill-rule="evenodd" clip-rule="evenodd" d="M56.0466 34.9247C51.241 38.9187 50.7089 46.01 54.8438 50.7199C58.9787 55.4298 66.2607 56.0268 71.0662 52.0329C81.7288 43.1711 79.5547 27.1878 79.5547 27.1878C79.5259 26.9608 79.4266 26.7476 79.2701 26.5769C79.1136 26.4061 78.9073 26.2859 78.6787 26.2322C78.4501 26.1784 78.2102 26.1938 77.9908 26.2762C77.7714 26.3586 77.5831 26.5041 77.4509 26.6933C75.1137 30.0207 72.2346 30.3717 68.484 30.7487C68.3291 30.7643 68.173 30.7797 68.0156 30.7953C64.363 31.1568 60.0687 31.5819 56.0466 34.9247ZM68.1977 33.0408C64.5714 33.4002 61.0174 33.7525 57.5485 36.6356C53.7734 39.7731 53.3095 45.2483 56.4445 49.0374C56.45 49.0367 56.4555 49.0361 56.4611 49.0355C57.967 48.7693 60.8232 46.8541 63.0499 44.9562C65.2765 43.0582 66.9979 41.2429 66.9979 41.2429C67.101 41.1343 67.2251 41.0465 67.3631 40.9845C67.5011 40.9226 67.6503 40.8876 67.8022 40.8818C67.954 40.8759 68.1056 40.8992 68.2482 40.9503C68.3908 41.0015 68.5217 41.0794 68.6334 41.1798C68.745 41.2801 68.8353 41.4008 68.8989 41.5351C68.9626 41.6694 68.9985 41.8145 69.0045 41.9623C69.0106 42.1101 68.9866 42.2576 68.9341 42.3963C68.8815 42.5351 68.8014 42.6624 68.6983 42.771C68.6983 42.771 66.9018 44.6636 64.5712 46.6509C62.6879 48.2575 60.5417 49.9525 58.3954 50.7953C61.7607 53.0732 66.3359 53.0052 69.5642 50.3221C77.8108 43.4682 77.3944 32.7295 77.1826 29.6683C74.6258 31.7548 71.6912 32.6905 68.7229 32.9885C68.5477 33.0061 68.3726 33.0235 68.1977 33.0408Z" fill="black"/>
</svg>
