<svg width="105" height="105" viewBox="0 0 105 105" fill="none" xmlns="http://www.w3.org/2000/svg">
<circle cx="52.5" cy="52.5" r="51.5" fill="#D6E2E9" stroke="#42569B" stroke-width="2"/>
<g clip-path="url(#clip0_249_194)">
<path d="M41.887 61.774C47.0301 61.774 51.7074 59.7957 55.2416 56.5806L59.4879 60.827L56.6469 63.668L75.9789 83L83 75.9789L63.668 56.6469L60.827 59.4879L56.5806 55.2416C59.7947 51.7074 61.774 47.0301 61.774 41.887C61.774 30.9207 52.8523 22 41.887 22C30.9217 22 22 30.9207 22 41.887C22 52.8532 30.9217 61.774 41.887 61.774ZM80.3219 75.9789L75.9789 80.3219L59.325 63.668L63.668 59.325L80.3219 75.9789ZM41.887 23.894C51.8087 23.894 59.88 31.9653 59.88 41.887C59.88 51.8087 51.8087 59.88 41.887 59.88C31.9653 59.88 23.894 51.8087 23.894 41.887C23.894 31.9653 31.9653 23.894 41.887 23.894Z" fill="black"/>
<path d="M34 43.5L40.2828 49L49 36.5" stroke="black" stroke-width="2" stroke-linecap="round"/>
</g>
<defs>
<clipPath id="clip0_249_194">
<rect width="61" height="61" fill="white" transform="translate(22 22)"/>
</clipPath>
</defs>
</svg>
