<svg width="105" height="105" viewBox="0 0 105 105" fill="none" xmlns="http://www.w3.org/2000/svg">
<circle cx="52.5" cy="52.5" r="51.5" fill="#D6E2E9" stroke="#42569B" stroke-width="2"/>
<path d="M79.6727 65.7416H88.9871C89.3011 65.7427 89.6027 65.6194 89.8262 65.3986C90.0497 65.1779 90.1769 64.8776 90.1801 64.5632L90.2809 57.0877C90.289 56.5228 90.16 55.9639 89.9101 55.4574C89.5937 54.8259 89.1927 54.0249 89.1443 53.9644C89.0758 53.8715 88.0722 51.0609 86.3613 44.9029C84.6302 38.6744 73.7943 37.8532 70.1185 37.7563C69.96 37.7525 69.8024 37.7806 69.6549 37.8387C69.5073 37.8968 69.3729 37.9839 69.2595 38.0948C69.1461 38.2058 69.056 38.3383 68.9945 38.4846C68.933 38.6309 68.9013 38.788 68.9013 38.9467V65.4389M40.801 64.9204H64.7218V37.6736C64.7218 37.0178 64.1857 36.4832 63.5308 36.4832H16.9125C16.2575 36.4832 15.7195 37.0178 15.7195 37.6736V63.7299C15.7195 64.3837 16.2575 64.9204 16.9125 64.9204H24.8525" stroke="black" stroke-width="2" stroke-linecap="round" stroke-linejoin="round"/>
<path d="M82.7305 52.78H76.7421V45.9214M35.695 64.6843L30.4288 64.7138M68.6668 65.0968L73.157 65.1341M79.6866 66.9803C79.6885 68.9012 78.1069 70.4568 76.1552 70.4587C74.2035 70.4607 72.6199 68.9032 72.6179 66.9823V66.9803C72.6179 65.0595 74.1995 63.5019 76.1512 63.5C78.1029 63.5 79.6865 65.0555 79.6885 66.9764L79.6866 66.9803ZM31.2823 66.9803C31.2823 68.9012 29.7006 70.4568 27.747 70.4568C25.7933 70.4568 24.2136 68.9012 24.2136 66.9803C24.2136 65.0595 25.7953 63.5039 27.7489 63.5039C29.7026 63.5039 31.2823 65.0595 31.2823 66.9803ZM41.8863 66.9803C41.8852 67.9037 41.5129 68.789 40.8511 69.4416C40.1893 70.0941 39.2922 70.4607 38.3569 70.4607C37.8934 70.462 37.4342 70.3731 37.0055 70.1992C36.5768 70.0253 36.187 69.7698 35.8584 69.4471C35.5297 69.1245 35.2686 68.7411 35.0901 68.3189C34.9115 67.8966 34.8189 67.4438 34.8176 66.9862V66.9803C34.8176 65.0595 36.3992 63.5019 38.3509 63.5C40.3026 63.5 41.8863 65.0555 41.8863 66.9764V66.9803Z" stroke="black" stroke-width="2" stroke-linecap="round" stroke-linejoin="round"/>
</svg>
