<svg width="53" height="65" viewBox="0 0 53 65" fill="none" xmlns="http://www.w3.org/2000/svg">
<path d="M6.06463 17.302L11.4965 11.8701L16.9284 17.302C18.646 19.0195 19.5077 19.8813 19.9594 20.9718C20.411 22.0623 20.4111 23.2807 20.4111 25.7084V62.3856H14.468C8.86379 62.3856 6.06463 62.3856 4.32333 60.6443C2.58203 58.903 2.58203 56.1039 2.58203 50.4996V25.7084C2.58203 23.2777 2.58203 22.0653 3.0337 20.9718C3.48537 19.8813 4.3471 19.0195 6.06463 17.302Z" stroke="#42569B" stroke-width="5" stroke-linecap="round" stroke-linejoin="round"/>
<path d="M11.4961 11.882V10.6934C11.4961 7.05625 11.4961 5.23769 12.6253 4.10852C13.7604 2.97935 15.5789 2.97935 19.222 2.97935H35.7257C37.8236 2.97935 40.5455 2.64357 41.951 4.55424C43.4398 6.58675 42.1679 9.37996 42.8128 11.6264C43.0089 12.3099 43.4962 12.8358 43.9419 13.3707L50.1256 20.7846M50.1256 20.7846H20.4106M50.1256 20.7846V50.4996C50.1256 56.1039 50.1256 58.903 48.3843 60.6443C46.643 62.3856 43.8439 62.3856 38.2396 62.3856H20.4106" stroke="#42569B" stroke-width="5" stroke-linecap="round" stroke-linejoin="round"/>
<path d="M20.4102 35.6421C21.8246 37.1279 25.5895 37.0565 27.8003 36.4712C28.5705 36.2578 29.3871 36.2811 30.1439 36.5381C30.9007 36.7952 31.5626 37.274 32.0436 37.9123L34.088 40.5926C35.2617 42.1348 37.0417 42.8658 38.7948 42.5271L41.3801 42.0308C42.8004 41.7575 44.2149 42.4469 45.1836 43.683C48.1997 47.5281 50.1252 47.5281 50.1252 47.5281" stroke="#42569B" stroke-width="5" stroke-linecap="round" stroke-linejoin="round"/>
</svg>
