<svg width="73" height="72" viewBox="0 0 73 72" fill="none" xmlns="http://www.w3.org/2000/svg">
<path d="M16.0646 20.302L21.4965 14.8701L26.9284 20.302C28.646 22.0195 29.5077 22.8813 29.9594 23.9718C30.411 25.0623 30.4111 26.2807 30.4111 28.7084V65.3856H24.468C18.8638 65.3856 16.0646 65.3856 14.3233 63.6443C12.582 61.903 12.582 59.1039 12.582 53.4996V28.7084C12.582 26.2777 12.582 25.0653 13.0337 23.9718C13.4854 22.8813 14.3471 22.0195 16.0646 20.302Z" stroke="#42569B" stroke-width="5" stroke-linecap="round" stroke-linejoin="round"/>
<path d="M21.4961 14.882V13.6934C21.4961 10.0562 21.4961 8.23769 22.6253 7.10852C23.7604 5.97935 25.5789 5.97935 29.222 5.97935H45.7257C47.8236 5.97935 50.5455 5.64357 51.951 7.55424C53.4398 9.58675 52.1679 12.38 52.8128 14.6264C53.0089 15.3099 53.4962 15.8358 53.9419 16.3707L60.1256 23.7846M60.1256 23.7846H30.4106M60.1256 23.7846V53.4996C60.1256 59.1039 60.1256 61.903 58.3843 63.6443C56.643 65.3856 53.8439 65.3856 48.2396 65.3856H30.4106" stroke="#42569B" stroke-width="5" stroke-linecap="round" stroke-linejoin="round"/>
<path d="M30.4102 38.6421C31.8246 40.1279 35.5895 40.0565 37.8003 39.4712C38.5705 39.2578 39.3871 39.2811 40.1439 39.5381C40.9007 39.7952 41.5626 40.274 42.0436 40.9123L44.088 43.5926C45.2617 45.1348 47.0417 45.8658 48.7948 45.5271L51.3801 45.0308C52.8004 44.7575 54.2149 45.4469 55.1836 46.683C58.1997 50.5281 60.1252 50.5281 60.1252 50.5281" stroke="#42569B" stroke-width="5" stroke-linecap="round" stroke-linejoin="round"/>
</svg>
