<svg width="67" height="78" viewBox="0 0 67 78" fill="none" xmlns="http://www.w3.org/2000/svg">
<g clip-path="url(#clip0_10_6)">
<path d="M36.6369 77.5893C36.6004 77.6064 36.5505 77.6063 36.5044 77.612C36.6619 77.5496 36.8482 77.4871 36.9693 77.4303L36.6369 77.5893ZM66.9998 71.8068C66.9998 71.8068 66.8576 71.2825 66.7308 70.8245C66.7251 70.2661 66.6252 69.7399 66.4523 69.2516C66.4791 69.1494 66.5425 69.0623 66.5618 68.9544C66.6136 68.6818 66.6386 68.4112 66.6386 68.1424C66.6386 67.8585 66.5291 67.5992 66.4734 67.3247C66.4734 67.2925 66.4753 67.2641 66.4753 67.2301C66.4753 67.1089 66.4715 66.9783 66.4599 66.8704C66.362 65.8673 65.9067 64.4155 64.293 63.1946C64.072 63.0262 63.5476 62.9126 62.9924 62.8274C63.1902 62.8502 63.536 62.8899 63.536 62.8899C63.5303 62.888 63.1749 62.7858 62.7465 62.6647C62.7369 62.5814 62.7388 62.4981 62.7253 62.4186C62.7253 62.4129 62.7292 62.4091 62.7292 62.4035C62.7292 62.4035 62.7465 61.4722 62.7465 61.4476C62.7465 61.37 62.7061 61.3019 62.7004 61.2224C62.7061 61.1902 62.733 61.1334 62.733 61.1069V60.8816C62.7561 60.7605 62.8291 60.6129 62.8291 60.5012C62.8291 60.2835 62.7599 60.0772 62.685 59.8652C62.7061 59.6078 62.733 59.2898 62.733 59.2898C62.733 59.3826 62.6523 58.2185 62.6523 58.2185C62.6447 58.1863 62.6581 58.5895 62.6581 58.5895C62.6331 57.7037 62.2777 56.7573 61.7072 56.0285C61.711 55.5781 61.6322 55.1389 61.4766 54.7263C62.0856 54.5522 62.6024 54.3439 63.171 54.1017C63.2671 54.06 63.3631 54.0146 63.4573 53.9654C65.9835 52.6045 66.6866 51.0164 66.1679 49.2353C65.5493 47.123 63.0404 48.499 61.1155 48.5709C60.1165 48.6088 56.3953 48.4252 55.9535 48.3419C54.236 48.0126 56.3339 46.8069 57.4347 45.7677C58.3933 44.8497 58.7391 43.8863 58.7564 42.5746V42.5178C58.7564 41.6017 58.4586 40.748 57.9534 39.9947C58.2396 39.8736 58.4471 39.7146 58.716 39.4893C59.5325 38.8136 59.9955 37.8066 59.9955 36.7561C59.9955 36.5971 59.982 36.4363 59.9609 36.2735C57.4423 17.7658 41.357 10.3347 39.5301 9.54727C39.4148 9.49806 39.2976 9.45452 39.1766 9.41667C37.0134 8.75041 33.8091 8.70119 32.1915 8.52138C32.4259 7.95733 32.5834 6.76487 32.5834 6.12132C32.5834 6.03425 32.5584 4.7888 32.5508 4.70362C32.3548 2.68969 31.5595 1.99314 29.4885 1.03729C25.8884 -0.283882 22.294 -0.0908177 19.5507 0.251777C19.4047 0.270705 19.0109 0.374809 18.8668 0.408879L18.7189 0.446735C17.9946 0.62655 16.0735 1.10543 15.0035 3.31242C14.869 3.59066 14.773 3.88404 14.7115 4.185C14.6904 4.29667 14.6961 4.40267 14.6808 4.51245C12.0277 4.31371 9.13649 4.35913 6.26253 5.39638C6.11845 5.44749 5.97821 5.50995 5.84181 5.57998C1.60388 7.77183 0.401281 9.92772 0.0612481 11.018C-0.355629 12.3581 1.40793 11.671 2.79304 11.2716C4.62768 10.7435 5.74768 10.3896 6.91378 10.1719C12.289 9.16871 14.8229 10.1719 16.11 10.7038C17.7987 11.4003 17.3722 11.3208 20.0579 11.5366C20.1251 11.5423 20.7937 11.5006 22.1922 11.4874C24.8721 11.4647 22.6956 13.5467 22.3152 13.9821C15.2302 20.9305 7.43824 33.9283 7.43824 39.9398C7.43824 40.7102 7.56503 41.3613 7.83975 41.8724C8.01457 42.1998 8.3181 42.3815 8.56592 42.6351C8.32194 43.0023 8.20091 43.4301 8.0626 43.9582C7.97807 44.28 7.93772 44.6036 7.93772 44.9216C7.93772 46.0308 8.44297 47.0737 9.39007 47.7324L10.4275 48.4536L11.6435 49.3337C12.3524 49.8467 13.4397 50.2404 14.3638 50.1931C12.8576 51.2587 12.6598 54.2645 12.6348 55.5213L11.2939 56.585C11.2939 56.585 10.3391 56.9314 10.3333 56.9352L9.33244 57.132C8.8099 57.3024 8.66966 57.4084 8.31234 57.8097C8.26239 57.8664 8.22781 57.9346 8.20476 58.0065L8.13944 58.2412C8.13175 58.2715 8.12599 58.3037 8.12407 58.3358L8.10102 58.7182C8.10102 58.7182 8.15096 59.4072 8.15096 59.4185C8.13752 59.498 8.11062 59.6608 8.11062 59.6608V60.7056C8.11062 60.7832 8.15481 60.999 8.20284 61.2299C8.16441 61.8848 8.11062 62.835 8.11062 62.835V62.9845C8.11062 63.0281 8.13175 63.1719 8.14712 63.2912C8.12983 63.4842 8.11062 63.6754 8.11062 63.6754C8.11062 63.6754 8.12983 63.8855 8.14712 64.0899C8.1356 64.1827 8.11062 64.3492 8.11062 64.3492C8.11062 64.3492 8.13752 64.4855 8.14328 64.512C8.06836 65.0363 7.97422 65.5057 7.97422 65.854C7.97422 66.4181 8.19515 66.8023 9.03275 67.1581C9.03275 67.1581 9.94911 67.5537 10.7809 67.9096C10.8117 67.9228 10.8155 67.9228 10.8463 67.9361C10.8943 67.9645 10.9481 67.9758 10.9961 68.0023C11.0461 68.0231 11.0653 68.0307 11.1094 68.0496C11.4245 68.1878 11.899 68.3904 11.899 68.3904C11.899 68.3904 12.0681 68.3638 12.1622 68.3506C12.1949 68.3525 12.2237 68.3771 12.2563 68.379L12.7731 68.4225C13.1247 68.4509 13.4609 68.3336 13.7951 68.2276C13.9258 68.2692 14.0526 68.3828 14.187 68.3904L15.1188 68.432C15.1726 68.4339 15.2244 68.4377 15.2782 68.4377C15.5971 68.4377 15.9487 68.3771 16.3079 68.2673C16.4001 68.2806 16.4789 68.3298 16.5769 68.3336C16.6038 68.3336 17.9005 68.3922 17.9005 68.3922C18.2482 68.3922 18.594 68.3241 18.9283 68.22C19.3874 68.396 19.8523 68.5229 20.3268 68.6023C20.2308 68.856 20.1559 69.0888 20.1559 69.2459V70.2282C20.1559 70.268 20.1789 70.3607 20.1924 70.4289C20.1847 70.4724 20.1559 70.6219 20.1559 70.6219C20.1559 71.6289 20.494 72.6397 21.078 73.4517L21.1145 73.5331C21.1875 73.8643 21.297 74.3697 21.297 74.3697C21.2663 74.2258 21.2663 74.0839 21.2509 73.9381C21.4526 74.54 21.7811 75.0681 22.1903 75.4902C22.1211 75.4334 22.0136 75.3483 22.0097 75.3445L22.2671 75.5981C22.2422 75.5754 22.223 75.53 22.198 75.5035C22.4112 75.7211 22.6437 75.9104 22.8992 76.0618C23.4832 76.5275 24.1613 77.065 24.1613 77.065C25.2314 77.5231 26.3341 77.7407 27.4983 77.7407C28.1764 77.7407 29.502 77.5306 30.6124 76.8398C31.1522 77.1388 32.4278 77.7294 33.592 77.8108C33.8436 77.9054 34.0646 77.9735 34.1914 77.9735H35.0847C35.4747 77.9735 36.0279 77.7918 36.5005 77.6064C36.4102 77.6158 36.318 77.6215 36.2469 77.6499L37.7915 77.0915C38.3236 77.4114 38.9345 77.5931 39.5781 77.5931H40.2735C40.3658 77.5931 40.5233 77.5515 40.7077 77.4928C41.4127 77.5515 42.1408 77.4057 42.7844 77.0328C43.0937 77.2278 43.428 77.3565 43.8007 77.3565H44.6805C44.9821 77.3565 45.3548 77.277 45.666 77.1937C46.6612 77.525 47.3143 77.2505 48.2345 76.535C48.419 76.3931 48.5458 76.2208 48.6514 76.0372C48.8704 76.2322 49.1144 76.3893 49.3718 76.5199C49.8982 76.9306 50.4361 77.347 50.4361 77.347C51.485 77.7843 52.5704 77.9944 53.7212 77.9944C53.8019 77.9944 55.2408 77.9773 56.5644 77.26C56.818 77.3792 57.085 77.4511 57.377 77.4511H57.9572C57.9822 77.4511 58.0033 77.4398 58.0283 77.4398C58.0398 77.4398 58.0494 77.4492 58.0628 77.4492L58.9081 77.4947L60.883 77.5704C60.9983 77.5704 62.1759 77.4019 62.1759 77.4019C62.2239 77.3906 61.3114 77.4076 61.3114 77.4076C61.7802 77.3981 62.9463 77.2997 63.3747 77.1085L63.536 77.0366C63.9337 76.8625 64.7386 76.5029 65.4168 75.6814C66.1967 74.9489 66.4734 74.1009 66.5541 73.5936C66.556 73.5842 66.556 73.5747 66.5579 73.5652C66.6079 73.3911 66.6886 73.1185 66.6886 73.1185C66.6789 73.1507 66.6559 73.1772 66.6463 73.2094C66.7904 72.6416 66.9998 71.8068 66.9998 71.8068Z" fill="white"/>
<path fill-rule="evenodd" clip-rule="evenodd" d="M37.9971 73.2227H36.9693C36.954 73.2643 36.8771 73.2927 36.7695 73.2927C36.5698 73.2927 36.5698 73.2227 36.3104 73.2227C36.0511 73.2227 36.005 73.624 35.9454 73.9703C35.8666 74.1786 35.1309 74.9149 34.7025 74.8448C33.984 74.718 33.5075 74.3584 33.2636 73.7905C33.0618 73.3041 33.0945 73.2757 33.1233 72.7211C33.1079 72.5564 33.0157 72.3463 33.0157 72.1665V72.5413H32.8467V71.7388C32.8467 71.6119 32.9062 71.557 33.0465 71.5419C33.0599 71.2504 33.1387 71.0819 33.1829 70.7942C33.2616 70.3059 33.1675 69.9766 33.7342 69.4882C33.8418 69.4201 34.1165 69.1135 34.2548 69.1135C34.5142 69.1135 34.6544 69.1835 34.6679 69.1835C34.8984 69.1835 35.1251 69.2251 35.3864 69.1835C35.3422 69.3103 35.6784 69.4352 35.8013 69.6699C35.8474 69.8365 36.0146 70.3778 36.1375 70.4876L36.2163 70.5444H37.9318C37.9318 69.81 37.7013 69.1835 37.2421 68.6857C36.7369 68.2409 37.1499 67.9929 36.3392 67.938C35.7725 67.673 35.4498 67.4232 34.8369 67.4232V67.6181H34.2856C34.2702 67.6598 34.2241 67.6882 34.1492 67.6882C34.0262 67.6882 34.0262 67.5633 33.9033 67.5633C33.6727 67.5765 32.9254 67.798 32.9062 67.938C32.2953 68.186 32.1263 68.2693 31.8054 69.1835C31.7747 69.2706 31.7286 69.3103 31.6825 69.3103C31.3021 69.3103 31.4981 69.9198 31.3924 69.9198L31.256 69.9879V70.4195L31.1945 70.4876C31.1792 70.9457 31.1945 71.3753 31.0562 71.8618C31.0428 72.0416 30.9947 72.2933 30.9947 72.528C30.9813 73.3741 31.208 73.5407 31.256 74.2902C31.256 74.3054 31.3636 74.3887 31.3636 74.4V74.1634H31.5327C31.5941 74.6082 31.9322 75.5376 32.2223 75.7174C32.5739 75.9407 33.569 76.3288 33.9071 76.3288C34.0435 76.3288 34.1818 76.3704 34.2894 76.4669H35.2538C35.4997 76.3117 35.7763 76.2171 36.0799 76.1471C36.2201 76.13 36.6773 75.7723 37.0308 75.7155C37.0769 75.6209 37.538 75.0227 37.5822 74.8978C37.6898 74.6612 38.074 73.7489 38.074 73.4006C38.074 73.2738 38.0432 73.2208 37.9991 73.2208L37.9971 73.2227ZM34.6256 68.8655H34.4892V68.6194H34.6256V68.8655ZM34.518 68.2863C34.518 68.6459 34.3202 68.8257 33.9225 68.8257C33.9225 68.4642 34.1204 68.2863 34.518 68.2863ZM31.3175 70.6977C31.3175 70.5463 31.3636 70.4346 31.4693 70.3665L31.6076 69.6718H31.7593C31.7593 70.0901 31.7728 70.6977 31.3156 70.6977H31.3175ZM35.8052 75.6644C35.5593 75.6644 35.4382 75.6228 35.4382 75.5376C35.4536 74.5685 36.3411 75.2347 35.8052 75.2196L35.8666 75.3464C36.2336 74.8051 36.4161 75.6644 35.8052 75.6644ZM44.2215 67.7999H43.6701C43.8084 67.8566 43.6701 67.9532 43.5337 67.9948C43.3935 67.9532 43.1802 67.8964 42.9209 67.7999C42.8901 67.7866 42.7211 67.7866 42.4003 67.7866C41.8931 67.7866 41.9872 67.9664 41.4493 67.9664C41.4493 67.8964 41.5569 67.745 41.7567 67.745H39.2747C39.2593 67.7866 39.1978 67.8112 39.1056 67.8112C38.8155 67.8112 38.4313 67.6749 38.1105 67.6749H38.0317C37.9875 67.7715 37.9875 67.8282 37.9722 67.9248C37.926 68.273 37.9088 68.5475 37.9088 68.7273C37.9088 69.0737 38.001 69.2422 38.1681 69.2422C38.3083 69.2422 38.2603 69.1608 38.4447 69.1608C38.585 69.1608 38.6753 69.1854 38.7195 69.2289C39.0441 69.2705 39.3976 69.2989 39.778 69.2989C39.7338 69.2989 40.2832 69.1721 40.4235 69.2403C40.4235 69.4201 40.3293 69.5034 40.1468 69.5034C40.1468 69.7419 40.1603 69.9898 40.1776 70.2264C40.1776 70.3362 40.239 70.5728 40.239 70.7961C40.239 71.0195 40.1007 71.0876 40.1007 71.4056C40.1007 71.4492 40.1315 71.5835 40.1776 71.8523C40.2198 72.1135 40.239 72.4467 40.239 72.8214C40.239 73.1962 40.1007 73.9306 40.1007 74.2789C40.1007 74.5136 40.1776 74.5571 40.1776 74.9584C40.1776 75.0284 40.1007 75.2764 40.1007 75.5546C40.1007 75.706 40.239 75.9142 40.1007 76.0676H40.8519C40.9594 75.9843 41.0497 75.9426 41.1285 75.9426C41.7702 75.9426 41.6952 76.1792 41.8182 75.7628C41.8624 75.6928 42.0161 75.7212 42.0314 75.4562C42.0468 75.318 42.0468 75.1098 42.0314 74.8316C42.0314 74.7369 42.091 74.6253 42.091 74.5287V72.9766C41.9988 72.9066 41.9546 72.7684 41.9546 72.5716C41.9546 72.3937 41.9853 72.2687 42.0314 72.2252C42.0161 71.9337 42.0314 71.5457 42.091 71.0327V70.9059C42.091 70.7961 42.0314 70.7129 42.0314 70.6712V69.3008H44.2195C44.1734 69.2838 44.1581 69.2573 44.1581 69.2024C44.1581 69.0756 44.1734 68.7974 44.2195 68.4245C44.2349 68.3544 44.2983 68.1746 44.2983 68.0213C44.2983 67.868 44.2676 67.7999 44.2195 67.7999H44.2215ZM40.8538 67.7999H40.9902V67.9267H40.8538V67.7999ZM40.8538 70.976H40.9902V71.1558H40.8538V70.976ZM41.067 73.306C41.067 73.4574 41.0209 73.5293 40.9287 73.5293C40.8538 73.5293 40.8058 73.5028 40.7923 73.4593C40.7443 73.1848 40.7136 72.8782 40.7136 72.5602V72.2252H40.8519C40.8038 72.6 41.0651 72.4467 41.0651 72.7249C41.0651 72.7381 40.9883 72.9047 40.9883 73.0277C40.9883 73.1508 41.0651 73.306 41.0651 73.306H41.067ZM50.9069 69.104C50.83 68.4945 50.3843 67.9948 49.8791 67.6768C49.5275 67.6768 49.297 67.6617 48.9762 67.4951C48.8071 67.4005 48.7303 67.3607 48.7168 67.3607C48.64 67.3607 48.5478 67.3853 48.4248 67.4289C47.8908 67.3853 47.2472 67.3607 46.4346 67.3607C46.1137 67.3607 45.7314 67.4421 45.4394 67.4421C45.2992 67.4421 45.2262 67.3607 45.0226 67.3607C44.9784 67.3607 44.7344 67.4838 44.6576 67.4951V67.6503C44.6576 67.7487 44.7939 67.9286 44.7939 68.2049C44.7939 68.7179 44.6576 69.1627 44.6576 69.4806V69.8005C44.6576 69.8422 44.6729 69.9103 44.7171 69.9822C44.7632 70.4384 44.792 70.9097 44.792 71.3545C44.792 71.4245 44.6556 71.6176 44.6556 71.8826C44.6556 72.1041 44.792 72.2706 44.792 72.3123C44.792 72.5489 44.6556 72.5905 44.6556 72.9634C44.6556 73.2416 44.792 73.6013 44.792 74.0593C44.792 74.2259 44.792 74.3224 44.7767 74.3375L44.7152 74.4625C44.6998 74.4909 44.6998 74.5874 44.6998 74.7672C44.6998 75.2234 44.8516 75.5433 44.6556 75.8215H45.6047C45.62 75.8064 46.4134 75.5868 46.3865 75.5868C46.5556 75.5868 46.6613 75.6133 46.7054 75.6568C46.7054 75.5016 46.5076 75.2253 46.5076 74.8808C46.5076 74.5363 46.569 74.2562 46.569 74.1047V73.7849C46.569 73.6183 46.5076 73.3684 46.5076 73.0334V72.8555L48.3595 72.9123C48.4824 72.952 48.5612 72.9804 48.6035 72.9804C49.7542 72.9937 50.4458 72.1627 50.6898 71.6063C50.7647 71.4548 51.1355 70.1507 50.9645 69.8573C50.9491 69.7078 50.9491 69.4447 50.903 69.1097L50.9069 69.104ZM49.8791 68.8409V68.9791C49.8791 68.9942 49.541 69.0623 49.4065 69.0623C49.4065 68.909 49.5583 68.8409 49.8791 68.8409ZM45.4683 73.4158C45.4394 73.4158 45.4221 73.4158 45.4068 73.4006C45.3933 73.1129 45.3319 72.793 45.3319 72.4997V72.4031C45.3453 72.388 45.3741 72.388 45.4068 72.388C45.6085 72.388 45.4221 72.458 45.67 72.458C45.8217 72.458 45.9005 72.5962 45.9005 72.8725C45.9005 73.024 45.7314 73.412 45.4702 73.412L45.4683 73.4158ZM47.5987 71.2239C47.2472 71.2409 46.9091 71.2523 46.5594 71.2523C46.5594 70.8245 46.6497 70.1848 46.6497 69.9785C46.6497 69.9217 46.6209 69.8384 46.5748 69.7286C46.5268 70.3949 46.0676 69.7702 46.4365 69.5488C46.6055 69.4504 46.6824 69.2838 46.6824 69.0491H48.5055C48.5823 69.174 48.6746 69.2989 48.7802 69.4239C48.9166 69.6056 48.9781 69.6889 48.9781 69.7021V69.7286C48.9166 70.075 48.9032 70.3797 48.9166 70.6693C48.7476 70.8264 48.6553 70.976 48.6419 71.1047C48.3364 71.1425 47.8293 71.2258 47.6007 71.2258L47.5987 71.2239ZM49.468 72.2233H48.8398V72.07H49.2528V71.8504H48.9166V71.7236C49.0857 71.7104 49.224 71.5854 49.3296 71.5854C49.4699 71.5854 49.5294 71.6971 49.5294 71.9318C49.5294 72.1287 49.516 72.2233 49.4699 72.2233H49.468ZM49.6658 69.8668C49.589 69.8668 49.541 69.8251 49.5275 69.7286C49.5141 69.6037 49.4968 69.4636 49.4968 69.3425C49.6044 69.3425 49.7715 69.369 49.7715 69.4239V69.1059H49.9732C49.9867 69.3008 49.7119 69.8706 49.6658 69.8706V69.8668ZM58.2666 69.2762C58.1436 69.2081 58.1744 69.0018 57.9304 68.7765C57.6076 68.5551 57.0275 67.8358 56.6144 67.7241C56.2475 67.6144 56.1841 67.6541 55.5905 67.5443C55.5732 67.5292 55.5444 67.5292 55.4964 67.5292C55.4368 67.5292 55.4041 67.5292 55.3888 67.5443C54.9143 67.5992 54.4859 67.6144 54.0747 67.5992C53.4773 67.7809 52.2651 68.4169 52.2824 68.6951C52.2824 68.8201 51.9769 69.2516 51.9443 69.3463C51.9154 69.4598 51.9443 70.2908 51.6695 70.2908C51.4275 70.2908 51.6081 70.0296 51.4717 70.4024C51.4121 70.5558 51.4717 71.275 51.2719 71.4567V72.4542C51.318 72.5224 51.3333 72.5659 51.3333 72.6094C51.3333 72.6776 51.2719 72.7325 51.2719 72.8574C51.2719 73.2303 51.5024 73.8132 51.8098 73.8132C51.8559 73.8132 51.8713 73.8132 51.8847 73.8265C52.0538 74.1729 52.1306 74.5893 52.0845 75.0757C52.6205 75.477 52.511 75.7666 53.3236 76.1168C53.9364 76.3647 54.6107 76.4915 55.3619 76.4915C55.7288 76.4915 56.6183 76.2833 56.893 75.9919C57.3368 75.6739 57.7344 75.5338 57.9342 75.0757C57.965 75.0057 58.0264 74.9224 58.134 74.8259C58.4241 74.2713 58.5951 73.6334 58.622 72.8971L58.7622 72.7041V72.0227H58.6546V72.2725H58.5471C58.5471 72.0511 58.378 71.911 58.6834 71.7028C58.7142 71.663 58.743 71.5798 58.7622 71.4548V70.5955L58.4875 70.3457L58.2704 69.2762H58.2666ZM57.1639 70.2207H57.3003V70.3475H57.1639V70.2207ZM55.2505 67.7923C55.2658 67.7809 55.2946 67.7809 55.3427 67.7809C55.6961 67.7809 55.8633 67.8907 55.8633 68.0989C55.8633 68.1803 55.8191 68.2257 55.725 68.2257C55.4041 68.2257 55.2351 68.0989 55.2351 67.8491C55.2351 67.8226 55.2351 67.8074 55.2505 67.7923ZM54.9757 67.9721H55.1141V68.0989H54.9757V67.9721ZM56.6913 72.5224C56.674 72.9104 56.6605 73.2038 56.6144 73.3836C56.601 73.5785 56.0016 74.7559 55.725 74.7559C55.65 74.7142 55.602 74.6858 55.5886 74.6991C55.4656 74.7559 55.358 74.8259 55.2812 74.8259C55.0987 74.8259 55.0833 74.7691 54.8989 74.8259H54.8682C54.0882 74.8259 53.4888 74.0063 53.4581 73.6334C53.5042 73.2303 53.2448 72.6208 53.2448 72.441C53.2448 72.0378 53.1987 71.275 53.3966 70.8302C53.4754 70.7356 53.5215 70.6655 53.5349 70.5955C53.4888 70.4157 53.4581 70.2889 53.4581 70.2207C53.4581 69.7778 54.3629 69.1551 54.7145 69.1551C55.2063 69.1551 55.8037 69.1664 56.0016 69.3463C56.5683 69.9008 56.4607 69.9993 56.553 70.4157C56.7086 71.1084 56.7681 71.593 56.7681 71.8845C56.7681 72.176 56.7086 72.3709 56.6932 72.5205L56.6913 72.5224ZM57.1658 72.829C57.1658 72.9388 57.1043 72.9975 56.9679 72.9975V72.0662C57.1043 72.0662 57.1658 72.0927 57.1658 72.1495V72.829ZM57.2407 72.0397C56.9967 72.0397 56.8277 71.3167 56.8277 71.1255V70.957H56.966C57.0909 70.957 57.0121 71.5684 57.3041 71.5684C57.4098 71.5684 57.4539 71.6365 57.4539 71.7747C57.4539 71.9564 57.379 72.0397 57.2407 72.0397ZM51.7445 74.1331C51.8367 74.2581 51.8828 74.4246 51.8828 74.6044V74.701C51.7598 74.5212 51.7137 74.3281 51.7445 74.1331ZM65.6128 74.4454C65.6609 74.1767 65.8952 73.8776 65.8952 73.6959C65.8952 72.9747 65.6128 72.8763 65.6128 72.706C65.6128 72.1817 65.3669 71.7577 64.6926 71.5873C64.4736 71.5305 63.8185 71.3053 64.2873 71.2201C64.8194 71.0214 65.9433 70.0031 65.3362 69.4371C65.3208 69.3103 65.3208 69.1267 65.3362 68.8579C65.2882 68.3904 65.0058 67.9816 64.4909 67.5992C64.0856 67.7128 64.0049 67.3437 63.49 67.3437C63.319 67.3437 62.9291 67.3437 62.881 67.4705H62.5199C62.224 67.4705 62.005 67.4005 61.8955 67.4005H59.304C59.2847 67.4005 59.2406 67.6409 59.2406 67.9248C59.2406 68.0516 59.304 68.1652 59.304 68.2352V69.4958C59.1599 69.7362 59.3789 70.3608 59.3789 70.7129C59.3962 71.4359 59.4135 71.2921 59.304 71.7861V72.0132C59.304 72.6795 59.2406 72.7779 59.2406 72.9634C59.2406 73.7262 59.3808 74.9148 59.3808 75.2537C59.3808 75.6928 59.4288 75.7344 59.3059 75.9199H59.9302C59.9763 75.6493 60.0686 75.5243 60.2261 75.5243C60.3221 75.5243 60.3682 75.6095 60.3682 75.7912C60.3682 75.8764 60.3221 75.9199 60.2107 75.9199C61.1636 75.9616 62.1337 76.0467 63.0866 76.0467H63.2115C63.4439 76.0467 63.7878 75.865 64.149 75.9199C64.6638 75.6776 64.9923 75.6209 65.194 75.212C65.3035 75.1117 65.6013 75.0549 65.3977 74.8297V74.7729C65.3977 74.5609 65.4783 74.4473 65.6147 74.4473L65.6128 74.4454ZM61.6938 68.928C61.8667 68.928 61.9916 68.9847 62.0377 68.9847H62.881C62.881 68.9847 63.4266 69.3803 63.442 69.4939V70.2586C63.2576 70.4289 63.1135 70.6409 62.9425 70.7677H61.6938C61.4902 70.7677 61.3038 70.728 61.1328 70.7129C61.177 70.6428 61.1962 70.5576 61.1962 70.4573C61.1789 69.6794 61.1617 69.2819 61.1617 69.2819H60.9292C60.7236 69.2819 61.006 68.9298 61.6938 68.9298V68.928ZM61.4133 75.7893H61.1962V75.6625H61.4133V75.7893ZM62.7235 74.3887C62.0223 74.3887 61.4748 74.3186 61.4748 74.3186L61.3038 74.2618V73.7527L61.1328 73.6959V73.1148C60.4758 73.0012 61.2097 72.9331 61.2712 72.3501H63.0213C63.5208 72.3501 63.4266 72.6605 63.7244 73.1148C63.8032 73.1867 63.8493 73.2435 63.8646 73.3135C63.9415 73.8511 63.3171 74.3887 62.7235 74.3887ZM63.3037 71.9697V71.8126C63.5534 71.8126 63.7743 71.9697 64.1009 71.9697H64.2104C64.2565 72.2366 64.2873 72.4504 64.2873 72.6056C63.9914 72.6056 63.6956 72.1249 63.3037 71.9697ZM23.416 73.7754C23.5083 73.9041 23.5563 74.0782 23.5563 74.2656V74.3678C23.4314 74.1804 23.3853 73.976 23.416 73.7773V73.7754ZM30.015 68.7368C29.892 68.6667 29.9228 68.4491 29.675 68.2219C29.3503 67.991 28.7624 67.2415 28.3417 67.126C27.9709 67.0125 27.9076 67.0541 27.3043 66.9405C27.289 66.9235 27.2582 66.9235 27.2121 66.9235C27.1487 66.9235 27.1161 66.9235 27.1045 66.9405C26.6223 66.9954 26.1882 67.0106 25.7713 66.9954C25.1681 67.1828 23.9424 67.8434 23.9578 68.133C23.9578 68.2636 23.6485 68.7103 23.6178 68.8106C23.587 68.9261 23.6178 69.7911 23.3392 69.7911C23.0914 69.7911 23.2777 69.5166 23.1375 69.9065C23.0741 70.0617 23.1375 70.8113 22.9358 70.9987V72.0359C22.9819 72.1097 22.9972 72.1514 22.9972 72.193C22.9972 72.2668 22.9358 72.3255 22.9358 72.4523C22.9358 72.8404 23.1663 73.446 23.4775 73.446C23.5236 73.446 23.539 73.446 23.5544 73.4612C23.7253 73.8208 23.8041 74.2543 23.7561 74.7559C24.2978 75.1742 24.1883 75.4751 25.0105 75.8366C25.6311 76.096 26.313 76.2266 27.0719 76.2266C27.4446 76.2266 28.3417 76.0108 28.6203 75.7079C29.0698 75.3767 29.4732 75.2328 29.673 74.7577C29.7038 74.6877 29.7672 74.5988 29.8748 74.4984C30.1706 73.923 30.3397 73.2605 30.3704 72.4978L30.5087 72.2971V71.5892H30.4011V71.8485H30.2936C30.2936 71.6214 30.1226 71.4775 30.4338 71.2599C30.4645 71.2163 30.4953 71.1293 30.5087 71.0006V70.1091L30.2302 69.8497L30.0131 68.7406L30.015 68.7368ZM28.9008 69.7172H29.041V69.846H28.9008V69.7172ZM26.9643 67.1961C26.9816 67.1828 27.0104 67.1828 27.0565 67.1828C27.4119 67.1828 27.5829 67.2964 27.5829 67.514C27.5829 67.6011 27.5368 67.6446 27.4446 67.6446C27.1161 67.6446 26.947 67.514 26.947 67.2566C26.947 67.2263 26.947 67.215 26.9624 67.1979L26.9643 67.1961ZM26.6857 67.3853H26.826V67.5159H26.6857V67.3853ZM28.4224 72.1078C28.407 72.511 28.3917 72.812 28.3436 72.9993C28.3302 73.2 27.725 74.4246 27.4465 74.4246C27.3677 74.3811 27.3216 74.3527 27.3063 74.3678C27.1814 74.4246 27.0738 74.4965 26.997 74.4965C26.8087 74.4965 26.7952 74.4398 26.6108 74.4965H26.5782C25.7886 74.4965 25.1834 73.6486 25.1546 73.2587C25.2007 72.8404 24.9375 72.2082 24.9375 72.0189C24.9375 71.6025 24.8895 70.8094 25.0912 70.3513C25.1681 70.2491 25.2142 70.1772 25.2296 70.1053C25.1834 69.9179 25.1546 69.7911 25.1546 69.7172C25.1546 69.2592 26.0671 68.6081 26.4245 68.6081C26.9182 68.6081 27.5233 68.6213 27.7251 68.8106C28.2975 69.386 28.19 69.4863 28.2822 69.9179C28.4378 70.639 28.4993 71.1425 28.4993 71.4435C28.4993 71.7444 28.4378 71.947 28.4224 72.1078ZM28.9027 72.422C28.9027 72.5375 28.8393 72.5943 28.701 72.5943V71.6309C28.8412 71.6309 28.9027 71.6611 28.9027 71.7179V72.422ZM28.9814 71.6025C28.7317 71.6025 28.5626 70.8548 28.5626 70.6542V70.48H28.701C28.8258 70.48 28.7471 71.116 29.0429 71.116C29.1524 71.116 29.1966 71.1879 29.1966 71.3318C29.1966 71.5192 29.1198 71.6044 28.9814 71.6044V71.6025ZM31.6787 66.4068C32.1724 66.6093 32.718 66.7096 33.327 66.7096C33.6266 66.7096 34.3432 66.543 34.5661 66.3064C34.9253 66.0471 35.248 65.9355 35.4113 65.5664C35.4344 65.5096 35.4843 65.4433 35.5708 65.3638C35.8071 64.9133 35.9435 64.3985 35.9685 63.8023L36.0799 63.6452V63.0944H35.9915V63.2969H35.907C35.907 63.1152 35.7687 63.0054 36.0165 62.8351C36.0415 62.801 36.0664 62.7347 36.0799 62.6344V61.9379L35.857 61.7354L35.6822 60.8722C35.5823 60.8136 35.6073 60.647 35.4113 60.4672C35.1481 60.2893 34.6794 59.7025 34.3432 59.6135C34.0454 59.5227 33.9974 59.5586 33.5133 59.4678C33.5018 59.4564 33.4749 59.4564 33.4384 59.4564C33.3903 59.4564 33.3654 59.4564 33.3538 59.4678C32.9677 59.5113 32.62 59.5227 32.2857 59.5113C31.8016 59.6571 30.8218 60.1738 30.8353 60.399C30.8353 60.5013 30.5856 60.8476 30.5625 60.9271C30.5356 61.018 30.5625 61.6918 30.3397 61.6918C30.1399 61.6918 30.2897 61.4779 30.1783 61.7808C30.1283 61.9038 30.1783 62.4868 30.0169 62.6344V63.4426C30.0553 63.4994 30.0669 63.5335 30.0669 63.5676C30.0669 63.6225 30.0169 63.6679 30.0169 63.7701C30.0169 64.0729 30.2033 64.5461 30.4511 64.5461C30.4876 64.5461 30.501 64.5461 30.5145 64.5575C30.6509 64.8376 30.7123 65.1764 30.6758 65.5683C31.11 65.8919 31.0236 66.1285 31.6825 66.4087L31.6787 66.4068ZM34.7908 63.7455C34.7908 63.8345 34.7409 63.878 34.6295 63.878V63.1266C34.7409 63.1266 34.7908 63.1493 34.7908 63.1928V63.7436V63.7455ZM34.7908 61.6331H34.9022V61.7335H34.7908V61.6331ZM34.518 62.2275H34.6295C34.7293 62.2275 34.6679 62.7234 34.9022 62.7234C34.9868 62.7234 35.0252 62.7783 35.0252 62.89C35.0252 63.0376 34.9656 63.1038 34.8523 63.1038C34.6525 63.1038 34.5161 62.5209 34.5161 62.3638V62.2256L34.518 62.2275ZM33.2405 59.6703C33.252 59.6571 33.2789 59.6571 33.3154 59.6571C33.5997 59.6571 33.7361 59.7479 33.7361 59.9164C33.7361 59.9826 33.6977 60.0167 33.6247 60.0167C33.3635 60.0167 33.2271 59.9164 33.2271 59.7139C33.2271 59.6911 33.2271 59.6798 33.2386 59.6722L33.2405 59.6703ZM33.0177 59.8123H33.1291V59.9145H33.0177V59.8123ZM31.7401 62.1272C31.8016 62.0477 31.84 61.9928 31.8516 61.9379C31.8131 61.7921 31.7901 61.6918 31.7901 61.635C31.7901 61.2754 32.5201 60.7719 32.8063 60.7719C33.204 60.7719 33.6881 60.7814 33.8476 60.9271C34.3067 61.3757 34.2203 61.4552 34.2933 61.7921C34.4181 62.3543 34.4681 62.748 34.4681 62.9808C34.4681 63.2136 34.4181 63.3764 34.4066 63.4994C34.3912 63.8136 34.3797 64.0502 34.3432 64.196C34.3317 64.3531 33.8476 65.307 33.6247 65.307C33.5613 65.2749 33.5248 65.2503 33.5133 65.2635C33.4134 65.307 33.327 65.3638 33.2655 65.3638C33.1176 65.3638 33.1041 65.3222 32.9562 65.3638H32.9293C32.2972 65.3638 31.8112 64.7014 31.7882 64.3985C31.8247 64.0729 31.6153 63.5789 31.6153 63.4332C31.6153 63.1057 31.5768 62.4887 31.7401 62.129V62.1272ZM30.5126 65.1821V65.2616C30.4127 65.1159 30.3762 64.9588 30.4011 64.8017C30.4761 64.9001 30.5126 65.0364 30.5126 65.1802V65.1821ZM23.3891 63.8004L23.5006 63.6433V63.0925H23.4122V63.295H23.3238C23.3238 63.1152 23.1874 63.0035 23.4353 62.8351C23.4602 62.801 23.4852 62.7329 23.4986 62.6325V61.936L23.2758 61.7335L23.1029 60.8703C23.003 60.8117 23.028 60.6451 22.832 60.4653C22.5688 60.2855 22.0982 59.7006 21.7639 59.6116C21.4661 59.5208 21.4162 59.5568 20.9321 59.4659C20.9205 59.4564 20.8975 59.4564 20.8571 59.4564C20.8072 59.4564 20.7841 59.4564 20.7726 59.4659C20.3865 59.5113 20.0388 59.5227 19.7045 59.5113C19.2223 59.6571 18.2406 60.1738 18.2541 60.3971C18.2541 60.4994 18.0062 60.8476 17.9813 60.9271C17.9563 61.018 17.9813 61.6918 17.7584 61.6918C17.5606 61.6918 17.7104 61.4779 17.5971 61.7808C17.549 61.9057 17.5971 62.4887 17.4357 62.6344V63.4426C17.4722 63.4975 17.4856 63.5316 17.4856 63.5657C17.4856 63.6206 17.4357 63.666 17.4357 63.7682C17.4357 64.0711 17.6201 64.5424 17.8698 64.5424C17.9063 64.5424 17.9198 64.5424 17.9313 64.5537C18.0677 64.8338 18.1292 65.1708 18.0927 65.5645C18.5269 65.8881 18.4404 66.1247 19.0955 66.4068C19.5931 66.6093 20.1387 66.7096 20.7457 66.7096C21.0454 66.7096 21.762 66.543 21.9848 66.3064C22.346 66.0471 22.6687 65.9355 22.8301 65.5664C22.8532 65.5096 22.9031 65.4433 22.9896 65.3638C23.2259 64.9133 23.3622 64.3947 23.3872 63.8023L23.3891 63.8004ZM22.2115 61.6331H22.3249V61.7354H22.2115V61.6331ZM20.6612 59.6703C20.6746 59.6571 20.6996 59.6571 20.7361 59.6571C21.0204 59.6571 21.1568 59.7479 21.1568 59.9164C21.1568 59.9845 21.1203 60.0167 21.0473 60.0167C20.7861 60.0167 20.6497 59.9164 20.6497 59.7139C20.6497 59.6911 20.6497 59.6798 20.6612 59.6722V59.6703ZM20.4383 59.8142H20.5498V59.9164H20.4383V59.8142ZM21.8292 63.4975C21.8158 63.8117 21.8023 64.0483 21.7658 64.1941C21.7524 64.3512 21.2702 65.3052 21.0473 65.3052C20.9839 65.2711 20.9474 65.2503 20.934 65.2616C20.836 65.3052 20.7496 65.3638 20.6862 65.3638C20.5382 65.3638 20.5248 65.3203 20.3769 65.3638H20.35C19.7179 65.3638 19.2357 64.6995 19.2088 64.3947C19.2473 64.0711 19.036 63.577 19.036 63.4294C19.036 63.1019 18.9994 62.4849 19.1608 62.1272C19.2223 62.0458 19.2588 61.9928 19.2722 61.936C19.2357 61.7902 19.2088 61.6899 19.2088 61.6331C19.2088 61.2735 19.9408 60.77 20.227 60.77C20.6247 60.77 21.1088 60.7795 21.2683 60.9252C21.7274 61.3738 21.641 61.4533 21.714 61.7902C21.8388 62.3524 21.8869 62.7461 21.8869 62.9808C21.8869 63.2155 21.8369 63.3745 21.8254 63.4975H21.8292ZM22.2134 63.7436C22.2134 63.8345 22.1635 63.878 22.0521 63.878V63.1266C22.1635 63.1266 22.2134 63.1493 22.2134 63.1928V63.7436ZM22.2768 63.1038C22.077 63.1038 21.9387 62.5209 21.9387 62.3656V62.2275H22.0501C22.15 62.2275 22.0886 62.7234 22.3249 62.7234C22.4113 62.7234 22.4497 62.7783 22.4497 62.89C22.4497 63.0376 22.3844 63.1038 22.2768 63.1038ZM17.8218 64.8017C17.8967 64.902 17.9332 65.0364 17.9332 65.1821V65.2616C17.8333 65.1159 17.7968 64.9588 17.8218 64.8017ZM23.3968 64.4988C23.4353 64.4988 23.4468 64.5196 23.4468 64.5537C23.4468 64.7676 23.3968 64.8547 23.4468 65.2616C23.4852 65.4187 23.3738 65.8446 23.781 65.8124C23.9424 65.8465 24.3516 65.7783 24.5629 65.9033C24.6014 65.9033 24.7743 65.7462 24.8357 65.7121C25.5177 65.4074 26.1248 64.8944 26.0633 64.2528C26.1133 63.8023 26.1133 63.4673 26.2247 63.242V61.2754C26.3111 61.0975 26.3495 60.9612 26.3495 60.8722C26.3495 60.7927 26.2862 60.6924 26.2862 60.5694C26.2862 60.399 26.3246 60.3214 26.3976 60.3214H27.8365V60.5694C27.8365 60.6924 27.7865 60.8609 27.7865 61.0975C27.7865 61.3568 27.8 61.4117 27.8365 61.7372C27.8499 61.7505 27.8499 61.7713 27.8499 61.8167C27.8499 61.9625 27.6252 62.0628 27.8365 62.288C27.8499 62.288 27.8499 62.3013 27.8499 62.3108C27.8499 62.4016 27.7865 62.5133 27.7865 62.5133C27.7865 62.5227 27.8499 62.6363 27.8499 62.818C27.8499 62.8048 27.8269 62.9505 27.7865 62.9411L27.8979 62.996C27.9114 62.8294 27.9729 62.5379 28.1093 62.5379C28.1976 62.5379 28.2341 62.5928 28.2341 62.7158C28.2341 62.9789 27.7884 63.2117 27.7884 63.3707C27.7884 63.5486 27.8518 63.6717 27.8518 63.6849C27.8518 63.7833 27.8134 63.931 27.727 64.0976L27.8384 64.2565C27.8518 64.2774 27.8518 64.4231 27.8518 64.6824C27.8518 65.008 27.8019 65.7708 27.8384 65.7708L29.2888 65.8162V64.8604C29.3157 64.8282 29.3388 64.7846 29.3522 64.7032C29.3637 64.6256 29.4022 64.3001 29.4022 64.1524V63.3442C29.3388 63.2874 29.3023 63.2212 29.2907 63.1417C29.2792 63.1076 29.4022 62.6022 29.4022 62.4792C29.4022 62.3108 29.2907 62.2653 29.2907 62.042C29.2907 61.9171 29.2907 61.9076 29.3541 61.7827V61.4798C29.3541 61.3322 29.2907 61.1183 29.2907 60.8968C29.2907 60.806 29.4022 60.6356 29.4022 60.4464C29.4022 60.3555 29.2907 60.2079 29.2907 60.0413V59.9751C29.3042 59.8501 29.4022 59.659 29.4022 59.4791C29.4022 59.2993 29.2158 59.288 29.3522 58.9643H27.7712C27.8711 59.0041 28.0824 59.1668 27.8019 59.1668C27.2064 59.1668 26.7722 59.0533 26.7856 59.0684L26.7357 58.9662H26.1766C26.2016 58.9794 26.2151 59.023 26.2151 59.1006C25.8539 59.1006 25.8424 58.9662 25.6925 58.9662C25.3832 58.9662 25.0989 59.0003 24.7877 59.0116C24.8626 59.3258 24.8991 59.676 24.8991 60.0451C24.8991 60.17 24.8357 60.259 24.8357 60.4501C24.8357 60.5732 24.8991 60.7776 24.8991 61.0104C24.8991 61.0672 24.7743 61.1448 24.7743 61.2016C24.7743 61.3246 24.9971 61.4685 24.7858 61.6824C24.7743 61.6956 24.7743 61.7391 24.7743 61.83C24.7743 61.8849 24.8357 62.0193 24.8357 62.2123C24.8357 62.2899 24.7243 62.4016 24.7243 62.5701C24.7243 62.7972 24.8492 62.9316 24.8492 62.9865C24.8492 63.56 24.7243 63.9745 24.3401 64.2565C24.2287 64.3342 24.1672 64.4023 24.1672 64.4591H23.4986L23.3988 64.5045L23.3968 64.4988ZM28.9411 60.9915C28.9411 61.194 28.8912 61.2849 28.7932 61.2716V61.6312H28.6818C28.6068 61.6312 28.5703 61.5309 28.5703 61.3284C28.5703 61.1051 28.6952 60.9915 28.943 60.9915H28.9411ZM25.9634 63.9461C25.9154 64.2168 25.852 64.3512 25.779 64.3512C25.706 64.3512 25.6676 64.2698 25.6676 64.1127C25.6791 63.8326 26.0268 63.6414 25.9653 63.9461H25.9634ZM36.3738 60.9688C36.3738 61.317 36.3873 61.5972 36.3988 61.8338C36.4872 62.9676 37.1941 63.5411 38.5101 63.5411C38.6945 63.5411 38.4716 63.2269 38.8443 63.4408C38.9807 63.5184 39.0921 63.5524 39.1805 63.5524C39.4149 63.5524 39.6377 63.4729 39.7761 63.4729C39.7761 63.6868 39.6896 64.2925 39.6896 64.4742C39.6896 64.62 39.7396 64.8206 39.7396 65.1026V65.1802C39.7396 65.1916 39.6896 65.3033 39.6896 65.5304V65.5645C39.7492 65.7443 39.7626 65.9563 39.7396 66.2042L41.2995 66.2497C41.1996 65.9355 41.5992 65.1575 40.9037 65.2616V65.1594C41.361 65.1594 41.3379 64.8452 41.1266 64.4988C41.0632 64.3966 41.0267 64.2395 41.0267 64.0502H41.1266L41.2995 64.3966V64.23C41.2995 63.9499 41.2495 64.0162 41.2399 63.6679C41.2399 63.4445 41.1996 63.4445 41.2995 63.2969V63.0963C41.2995 62.8256 41.2495 62.8843 41.2399 62.6136C41.2399 62.4906 41.2995 62.4338 41.2995 62.288C41.2995 62.1631 41.2899 61.9966 41.2399 61.7372V61.4988C41.2399 61.3095 41.3494 61.1088 41.2399 60.9726V60.9271C41.2399 60.8722 41.2995 60.8041 41.2995 60.7246V59.871L41.19 59.5681L41.2995 59.4678C40.9153 59.4583 40.5195 59.411 40.1353 59.411H39.9355C39.7991 59.411 39.7376 59.4337 39.7376 59.4678C39.7376 59.5473 39.7972 59.6249 39.7972 59.7952C39.7972 59.9769 39.7376 60.0091 39.7376 60.2665C39.7376 60.3896 39.7972 60.5126 39.7972 60.7038V60.7719C39.7876 60.8495 39.6742 61.0521 39.6742 61.2186C39.6742 61.3644 39.7376 61.4211 39.7376 61.601C39.7472 61.601 39.6493 62.1745 39.5763 62.1858C39.5148 62.1858 39.4399 62.129 39.3515 62.129H38.2987C38.1873 62.129 38.1124 62.095 38.0759 62.0268C38.0144 61.9473 38.0874 61.6672 37.9011 61.4779C37.8915 61.1505 37.853 60.7908 37.853 60.4672V60.4426C37.853 60.3423 37.853 59.3978 37.7916 59.4091H36.4007C36.3623 59.4091 36.3508 59.5094 36.3508 59.712C36.3508 60.0829 36.3776 60.452 36.3776 60.823V60.9707L36.3738 60.9688ZM40.7923 65.4055H40.9652V65.5077H40.7923V65.4055ZM40.6309 64.6976H40.7424V64.7998H40.6309V64.6976ZM40.6309 65.0572H40.7424V65.2597H40.6309V65.0572ZM38.1873 63.1928C38.1969 63.1833 38.2104 63.1833 38.2373 63.1833C38.5331 63.1833 38.1873 63.543 38.1739 63.2401C38.1739 63.2174 38.1739 63.2042 38.1873 63.1928ZM37.1192 60.5637H37.0078V60.4653H37.1192V60.5637ZM36.9348 59.8558C37.0193 59.8558 37.0712 59.9221 37.0712 60.0564C37.0712 60.2022 36.8867 60.3271 36.7234 60.3271C36.7234 60.1132 36.7465 59.8558 36.9348 59.8558ZM45.1167 63.4635H45.6488C45.6488 63.6774 45.6143 63.8553 45.6143 64.0464C45.6143 64.2168 45.6757 64.2603 45.6757 64.4742C45.6757 64.62 45.5758 64.6767 45.6757 64.902V64.9588C45.6757 65.0818 45.6143 65.1481 45.6143 65.3298C45.6143 65.5115 45.5989 66.0944 45.6757 66.2515L45.7257 66.35L47.2261 66.4068V64.9588C47.1876 64.8925 47.1761 64.8017 47.1761 64.6995C47.1646 64.6654 47.1646 64.4856 47.1646 64.1487C47.1646 63.8345 47.1876 63.5202 47.2261 63.2401V63.2174C47.2261 62.8691 47.1012 62.466 47.1146 62.43L47.2261 62.2843C47.2376 62.2748 47.2376 62.1385 47.2376 61.8811C47.2376 61.2868 47.2011 60.6905 47.1146 60.1189V60.0848C47.1146 59.9183 47.2376 59.782 47.2376 59.7385C47.2376 59.6817 47.2376 59.6476 47.2261 59.6154L45.6757 59.57C45.6373 59.5605 45.6143 59.5832 45.6143 59.6362C45.6143 59.6722 45.6488 59.7498 45.7257 59.871C45.7142 60.1738 45.6873 60.4672 45.6757 60.7719C45.5758 60.9707 45.9581 60.8382 45.8102 60.4672H46.0599C46.0599 61.0274 45.6143 61.1978 45.6143 61.7013C45.6143 61.8943 45.6373 62.0287 45.6757 62.1063H44.7209C44.7325 62.165 44.6825 62.1839 44.5711 62.1839C44.4866 62.1839 44.3367 62.1631 44.3367 62.1272V62.1839H43.9506C43.8507 61.9947 43.5779 62.0855 43.6163 61.9814C43.6912 61.7997 43.7277 61.6559 43.7277 61.5328C43.7277 61.3189 43.5049 61.1259 43.5049 60.7246H43.6528C43.6528 60.5334 43.6413 60.4085 43.7277 60.2192C43.7162 60.1057 43.8276 59.2312 43.3916 59.6116H42.9977C42.8844 59.6116 42.8364 59.5567 42.5002 59.5567C42.3887 59.5567 42.2773 59.5568 42.164 59.5662V60.3631C42.164 60.5088 42.2254 60.611 42.164 60.8703V61.5328C42.164 61.6767 42.2504 61.8792 42.114 62.0268V63.0376C42.1889 63.1398 42.2255 63.2609 42.2255 63.3972C42.2255 63.8345 42.114 64.1714 42.114 64.4288C42.114 64.6559 42.164 64.8357 42.164 64.8679C42.164 65.1727 42.164 65.1916 42.114 65.5645V65.6421C42.114 65.9922 42.1889 66.2383 42.1889 66.4068H42.6097L42.6596 66.3064C42.8959 66.2724 43.0458 66.2269 43.3051 66.2269C43.3051 66.3064 43.2801 66.35 43.2187 66.35H43.6643C43.7008 66.35 43.7277 66.2724 43.7277 66.1266C43.7277 65.9373 43.6643 65.9487 43.6643 65.6686C43.6643 65.4074 43.6643 65.4301 43.7277 65.1613V65.0193C43.7277 64.8376 43.5644 64.7922 43.6643 64.5556C43.6759 64.2528 43.6759 63.948 43.6643 63.6452L43.7277 63.4673H44.3848L44.4482 63.3423H45.0533L45.1167 63.4673V63.4635ZM46.058 64.7525H46.1695V64.8528H46.058V64.7525ZM46.5037 65.0004C46.4442 65.0667 46.4038 65.1234 46.3942 65.1575C46.3539 65.2805 46.3673 65.5171 46.2559 65.5171C46.1195 65.5171 46.058 65.4528 46.058 65.3184C46.058 64.9228 46.5786 64.6976 46.5037 65.0023V65.0004ZM43.1687 63.596C43.0823 63.5184 43.0458 63.4502 43.0458 63.4048C43.0458 63.2931 43.0688 63.1909 43.1053 63.0906C43.1168 63.0792 43.1418 63.0792 43.1687 63.0792C43.1802 63.0792 43.6893 64.1676 43.1687 63.5941V63.596ZM43.7008 62.519C43.7008 62.3051 43.7642 62.2048 43.8987 62.2048C43.8987 62.4187 43.8392 62.519 43.7008 62.519ZM48.3749 65.8541H48.5996C49.6044 65.8541 50.5956 65.7973 51.6004 65.7651C51.6984 65.7765 52.5552 65.4736 52.7165 65.2597C53.0527 64.7998 53.2756 64.2149 53.2756 63.6187C53.2756 63.5392 53.1622 63.4635 53.1622 63.3726C53.1622 63.295 53.2122 63.1928 53.2122 63.0584C53.2122 62.6647 53.0278 62.3051 52.5436 61.9795C52.3208 61.7656 52.4188 61.565 52.1075 61.7316H52.0691C51.9347 61.7316 51.6734 61.4174 51.3891 61.4174C51.0279 61.4174 51.1393 61.4514 51.1393 61.688C50.7551 61.688 50.6072 61.7656 50.246 61.7656C50.246 61.6748 50.928 61.5309 50.4324 61.4741C50.1826 61.4401 49.4776 61.4969 49.4776 61.317C49.4776 61.2622 49.6754 61.0804 49.7119 60.8666C49.7119 60.7776 49.5525 60.17 49.6524 59.9126C49.662 59.5851 49.6754 59.2728 49.6754 58.9567H48.955V59.1365C48.955 59.1687 48.348 58.9227 48.152 58.934V60.259C48.1866 60.3158 48.202 60.382 48.202 60.4615C48.202 60.5164 48.1866 60.5845 48.152 60.664C48.1136 61.0331 48.1021 61.4401 48.1021 61.8773C48.1021 62.0458 48.152 62.1915 48.152 62.3619C48.152 62.394 48.1021 62.4849 48.1021 62.6306V64.0881C48.1386 64.1449 48.152 64.2471 48.152 64.3928C48.152 64.6067 48.1386 64.6389 48.1021 64.8982V65.0667C48.1021 65.2351 48.0022 65.8522 48.3729 65.8522L48.3749 65.8541ZM51.998 64.6521C52.146 65.1026 51.8732 65.1462 51.8232 64.7979C51.7118 64.8755 51.5754 64.9209 51.414 64.9209C51.4275 64.584 51.8982 64.0786 51.998 64.6502V64.6521ZM49.4795 63.5051C49.4795 63.3953 49.5544 63.3253 49.7139 63.2931V62.7877C50.1 62.7745 50.4977 62.731 50.88 62.731H50.9799C51.5024 62.731 51.6004 63.5278 51.6004 63.8761C51.585 63.967 51.2642 64.3512 51.2642 64.3512L49.8253 64.4515C50.0097 64.4401 50.1211 64.8111 50.1211 64.9569H49.9867L49.8752 64.6976H49.2912C49.3027 64.6086 49.7004 64.1941 49.7119 63.9688C49.7119 63.8231 49.4776 63.7209 49.4776 63.507L49.4795 63.5051ZM53.4984 63.2136V62.7877C53.46 62.5985 53.4485 62.4281 53.435 62.3278V61.2262C53.5215 60.9896 53.5599 60.8912 53.5599 60.7208C53.5599 60.4634 53.485 60.5183 53.485 60.259C53.485 60.2022 53.5484 60.0792 53.5484 59.9126C53.5484 59.8445 53.5349 59.7763 53.5003 59.7101V58.9018L54.1055 58.9567C54.1189 58.9567 54.1189 58.9794 54.1189 58.9794C54.1189 59.2728 54.5396 58.9132 54.9104 58.9018C55.1083 58.9018 54.9988 58.9567 54.9988 59.1271C54.9988 59.2255 55.0468 59.3504 55.0468 59.4053V59.7082C55.1352 59.9788 54.9988 60.4634 54.9988 60.8192V61.4268C55.0968 61.777 54.9834 61.8205 54.9834 62.2142C54.9834 62.3486 54.9834 62.4186 54.9988 62.4281L55.1064 62.5303C55.0334 62.7896 54.9988 62.9562 54.9988 63.0357C54.9988 63.1587 55.0583 63.2136 55.0583 63.3158C55.0583 63.3253 54.9988 63.4294 54.9988 63.6187C54.9988 63.9669 55.1064 64.2376 55.1064 64.4269C55.1064 64.8906 55.0718 65.3506 54.9988 65.8105L53.4984 65.7083C53.4831 65.7083 53.483 65.6194 53.483 65.608C53.483 65.5096 53.5099 65.4414 53.5464 65.4055V64.196C53.4715 64.0938 53.435 63.9688 53.435 63.8439C53.435 63.6546 53.4984 63.4067 53.4984 63.2155V63.2136ZM16.7825 62.4433C16.7825 62.3089 16.8459 62.3429 16.8459 62.1726V62.095C16.8325 61.9928 16.7345 61.7921 16.7345 61.5782C16.7345 61.2073 16.8459 60.8155 16.8459 60.4899C16.8459 60.365 16.7345 60.2192 16.7345 59.9826C16.7345 59.8047 16.796 59.7933 16.796 59.5605C16.796 59.2899 16.721 59.322 16.721 58.9624C16.721 58.7258 16.7595 58.5706 16.8459 58.4684H14.725L14.6712 58.4457C14.6712 58.4457 14.6751 58.4305 14.6751 58.4211H14.6136L14.6693 58.4438C14.6559 58.5384 14.6347 58.6312 14.6117 58.7239C14.4638 59.2312 14.4753 59.534 14.2275 59.9807C14.166 60.3328 13.8067 61.4874 13.8067 61.442V61.8016L13.6204 61.9C13.6069 62.0931 13.509 63.1474 13.2842 62.553C13.0614 61.9795 12.8635 61.4741 12.7655 60.9915C12.6771 60.5978 12.5926 60.3195 12.5042 60.1246C12.3025 59.7214 12.4159 59.464 12.1546 58.8678C12.1296 58.7675 12.1181 58.6652 12.1047 58.5649H11.6724C11.3862 58.5649 11.1403 58.6766 10.8905 58.6766C10.8022 58.6766 10.7407 58.5649 10.6427 58.5649C10.5774 58.5649 10.5159 58.5876 10.4429 58.6198L9.99721 58.7201C9.95879 58.8772 9.94727 59.0589 9.94727 59.2709V59.8539C9.94727 60.1246 9.99721 60.4047 9.99721 60.664C9.99721 60.7416 9.94727 60.8117 9.94727 60.8893V61.9909C10.0203 62.1688 10.0587 62.2824 10.0587 62.3164C10.0337 62.5209 9.94727 63.8875 9.94727 64.2357V64.3928C9.94727 64.4704 9.99721 64.5707 9.99721 64.6957C9.99721 64.832 9.94727 64.9796 9.94727 65.1234C9.94727 65.2673 9.99721 65.4282 9.99721 65.5739C9.99721 65.6307 9.94727 65.731 9.94727 65.8332C9.94727 65.9998 9.99721 66.0679 9.99721 66.0812C9.99721 66.3367 9.88387 66.3594 10.2431 66.3594C10.3565 66.3594 10.6024 66.2478 10.8387 66.2478C10.9136 66.2478 10.9501 66.2799 10.9366 66.3594L11.4957 66.403C11.4822 66.2799 11.4822 66.1683 11.4957 66.0566C11.5072 65.9657 11.5571 65.8787 11.5571 65.6856C11.5571 65.5058 11.5571 65.4963 11.4457 65.3487C11.4323 65.2692 11.4937 65.1121 11.4937 64.9663C11.4937 64.7316 11.4303 64.6067 11.4937 64.2376C11.5053 64.16 11.5053 62.8578 11.5053 62.3751C11.5053 62.1044 11.5302 61.813 11.4937 61.5442C11.4553 61.2849 11.3823 61.1278 11.3823 60.9934C11.3823 60.8476 11.4207 60.7795 11.4937 60.7795C11.5322 60.7795 11.7166 61.5309 11.7166 61.5442L11.828 61.7448C11.9279 62.1726 11.9029 62.2615 12.1008 62.7007C12.2872 63.1152 12.0509 64.3171 12.3237 64.6976C12.6099 65.2938 12.5715 65.2616 12.6099 65.7992C12.6464 66.0131 12.9192 66.0944 12.8827 66.3632L13.8874 66.4068C13.899 66.4068 14.0123 66.1266 14.0603 66.0036C14.1103 65.8692 14.3715 65.1613 14.2697 64.9493C14.2697 64.9133 14.2198 64.9133 14.2198 64.8244C14.2198 64.5424 14.2082 64.3417 14.556 64.2963C14.5944 64.2622 14.5195 64.0824 14.6059 64.0389C14.8691 63.4767 15.0401 61.8376 15.115 61.1978C15.2149 60.7833 15.2879 61.7051 15.2879 61.7808C15.2879 61.8148 15.2245 61.9511 15.2245 62.0969C15.2245 62.2199 15.2879 62.3108 15.2879 62.4546C15.2879 62.5985 15.2245 63.7228 15.2245 63.9594V64.0938C15.2245 64.4969 15.2879 64.8111 15.2879 65.0704C15.2879 65.4168 15.213 65.6875 15.213 66.0585C15.213 66.2061 15.3129 66.2951 15.4973 66.3045C15.9564 66.3386 16.3676 66.3613 16.7134 66.3613C16.8017 66.3613 16.8382 66.2724 16.8382 66.102V65.9998C16.8248 65.8995 16.7268 65.7291 16.7268 65.5058V65.3487C16.7268 65.1216 16.7748 64.7865 16.8382 64.3379V64.1127C16.8382 63.842 16.8651 62.8332 16.7748 62.553V62.4395L16.7825 62.4433ZM11.0519 63.9348C11.0519 64.0143 11.0039 64.0483 10.8924 64.0483C10.781 64.0483 10.7176 62.8805 10.7176 62.6004V62.3429C10.7176 62.1158 10.6926 61.9379 10.829 61.9379C10.9174 61.9379 10.9558 61.9947 10.9558 62.1063C10.9558 62.1972 10.879 62.3429 10.879 62.3524C10.879 62.5663 10.8694 62.4319 11.0519 62.4319V63.9329V63.9348ZM15.4435 59.2312C15.4435 59.1517 15.4819 59.1176 15.5684 59.1176C15.7413 59.1082 15.8028 59.7801 15.8028 59.7574C15.7182 59.7479 15.455 59.3202 15.4435 59.2293V59.2312ZM15.7912 60.2514V59.8388H15.9027C15.9411 59.8388 15.9526 59.9277 15.9526 60.1189C15.9526 60.2079 15.9026 60.2514 15.7912 60.2514ZM16.064 59.4773H15.9526V59.3315H16.064V59.4773ZM57.137 57.0072C58.0322 56.7668 57.867 56.7668 58.693 57.7132C58.9159 57.9668 59.229 57.2665 59.571 57.2665L59.9072 56.8879L60.2069 57.0072C59.9091 57.9289 59.3116 58.6558 58.3319 58.6558C57.5346 58.6558 56.9756 57.7908 57.135 57.0072H57.137ZM61.275 64.3966C61.3403 64.3966 61.3691 64.4553 61.3691 64.5632C61.3691 64.7449 61.2366 64.7922 61.2366 64.514V64.4061C61.25 64.3966 61.2635 64.3966 61.275 64.3966ZM59.6939 63.1796C59.6939 63.4086 59.4807 63.683 59.6939 63.9745V64.0692C59.6939 64.2509 59.6267 64.3114 59.6267 64.5499C59.6267 64.6597 59.6939 64.6843 59.6939 64.8168C59.6939 64.902 59.6517 65.0212 59.5748 65.1651C59.5614 65.2503 59.5748 65.4433 59.6267 65.8162C59.6517 66.0452 59.8111 66.261 59.3597 66.4787H60.5181L60.6372 66.6093H61.2347C61.2616 66.6093 61.2884 66.49 61.3019 66.2497C61.3134 65.9355 61.3134 65.6213 61.3019 65.3203C61.3403 65.237 61.3691 65.1632 61.3691 65.0799C61.3691 64.9966 61.0637 64.8395 61.0637 64.7316V64.1411C61.2078 64.054 61.2884 63.8742 61.3019 63.6016C61.3134 63.3461 61.3134 63.0944 61.3134 62.8426H61.129C61.129 62.6609 61.1809 62.5152 61.3019 62.4073V61.3833C61.2616 61.2981 61.2347 61.2262 61.2347 61.141C61.2347 60.9139 61.3019 60.7189 61.3019 60.4899C61.3134 59.9732 61.1943 59.8785 61.2347 59.4318L61.0618 59.3845C61.0618 59.3845 60.6602 59.3485 59.863 59.322C59.6113 59.3126 59.6113 59.5643 59.4384 59.8407C59.4384 59.9239 59.6363 59.888 59.6363 59.9713C59.6363 60.223 59.5191 60.3574 59.2809 60.3574C59.0023 60.3574 59.1349 60.346 59.0254 60.6716C58.8391 61.1883 58.2954 61.5006 58.255 62.1877C58.1878 62.3448 57.8708 62.7783 57.7767 63.1038C57.6422 63.3688 57.2964 64.1487 57.2964 63.7758C57.2964 63.5221 57.3637 63.5486 57.3637 63.2231C57.3637 63.0168 57.2445 62.6079 57.2445 62.271C57.2445 62.2237 57.2983 62.1631 57.2983 62.1044C57.2983 61.9095 57.233 61.7884 57.233 61.7543C57.233 61.5972 57.2714 61.406 57.3656 61.1656L57.2983 61.0558C57.2868 61.0445 57.2445 60.8155 57.2445 60.346V60.2628C57.2445 59.8766 57.5231 59.2028 57.0601 59.2747C56.6221 59.2842 56.1534 59.3126 55.6885 59.322C55.7288 59.4678 55.5809 59.623 55.6885 59.8653C55.7288 60.1662 55.7538 60.3725 55.7538 60.4672C55.7538 60.6016 55.6366 60.9139 55.6366 60.9972C55.6366 61.1789 55.798 61.37 55.6885 61.6483V62.2502C55.6885 62.4792 55.6885 63.2382 55.7442 63.4313C55.7538 63.4313 55.7538 63.4445 55.7538 63.454C55.7538 63.6016 55.7288 63.8174 55.6885 64.1411C55.6769 64.283 55.7538 64.8149 55.6366 65.1045V65.1632C55.6366 65.3695 55.6885 65.5361 55.6885 65.6213V65.8635C55.6885 65.9714 55.5963 66.0926 55.6885 66.297V66.3803C55.6885 66.4295 55.6769 66.5506 55.6366 66.5506H56.2898C56.3301 66.5128 56.3954 66.5014 56.503 66.5014H56.5818C56.7028 66.5014 56.8738 66.6074 57.1274 66.6074C57.4078 66.6074 57.4194 66.2572 57.5385 66.0774C57.7652 65.7537 57.9784 65.3922 58.1379 64.9947C58.2454 64.7411 58.4164 64.2944 58.6181 63.9726C58.962 63.8628 59.083 62.7915 59.2137 62.6723C59.4404 62.4186 59.5748 62.2483 59.6267 62.1404C59.6133 62.4906 59.6939 62.7802 59.6939 63.1777V63.1796ZM56.8872 61.2773C56.9256 61.0842 56.9545 60.9044 56.9545 60.7492C57.0736 60.7492 57.1274 60.8438 57.1274 61.0237C57.1274 61.2148 56.7835 61.8167 56.8891 61.2773H56.8872Z" fill="#2F2A85"/>
<path d="M63.6116 49.2522C62.434 49.5153 58.4573 50.4181 56.7572 49.9374C52.3002 49.1575 50.3542 49.2541 49.9008 49.2541C49.9008 49.2541 52.792 46.678 54.5517 45.3852C57.9963 43.3542 57.0357 42.2034 56.2385 41.7075C55.7371 41.5731 54.5844 41.6583 53.1647 41.734L31.6178 42.6558C31.3257 41.0886 31.2297 39.4967 31.2124 37.85C36.0516 37.2462 58.1768 36.8639 58.3344 36.737C56.0848 20.5953 42.7217 13.2399 38.5548 11.4872C35.6252 10.6071 32.0846 9.79128 29.6256 10.4708L29.6467 5.80885C30.7725 5.39244 30.638 3.28009 28.106 2.63465C25.1936 1.54061 22.1314 1.57279 18.9539 1.96081C18.2758 2.19363 17.467 2.15009 16.9848 3.1192C16.8542 3.77978 17.0386 4.26812 17.6956 4.9306C17.8531 5.04038 17.9492 5.12934 18.0452 5.17856C20.0605 6.20066 18.0875 6.88964 16.5372 6.83096C12.7104 6.35209 8.96616 5.95081 5.42559 7.19627C1.5834 9.14017 1.08008 10.7244 1.08008 10.7244C11.0352 6.11549 13.9552 10.1888 19.8895 9.33702C21.7683 8.95846 23.3244 7.42151 22.5867 5.96406C22.5598 5.9281 22.3158 5.61011 22.1698 5.52304C20.8462 4.44794 21.3457 3.98042 24.4021 4.53501C28.2578 5.0877 27.8908 5.85428 27.8908 5.85428L27.9734 10.9913C27.9734 10.9913 26.9783 11.0632 26.9418 12.0721C27.1397 12.8254 27.4759 12.9144 27.862 13.0469C28.9839 20.5196 28.4134 28.2536 28.4076 35.8096C27.5719 36.3396 27.107 36.3831 26.0965 36.3793C26.7247 30.9621 25.0111 25.032 25.9486 19.6262C26.1638 18.0457 26.7977 16.6262 27.0494 15.076C27.1935 14.2867 26.5787 13.5977 25.4933 14.0841C14.6872 23.3058 7.1392 41.1756 9.56554 40.4923C9.56554 40.4923 18.8598 39.3302 22.6885 38.6923C23.7739 38.5466 24.2235 39.845 26.1676 38.9478C26.3348 37.5718 28.7937 38.2948 29.2663 38.1396C29.6025 39.5611 29.5987 41.2797 29.6506 42.8829L28.9551 42.9643C26.9322 43.0722 25.2051 43.2842 22.8806 43.3145C19.9356 43.6552 9.40993 45.0426 9.77686 45.3057C10.6087 45.9095 11.746 46.5606 12.5029 47.2326C15.1924 46.589 18.1221 46.2672 18.5755 46.2275C22.3043 45.8792 26.256 45.5726 28.9724 45.6597C31.3065 45.7373 32.6052 45.3738 32.6955 46.96C32.7397 47.7455 31.0491 48.0749 30.0482 48.0862C28.471 48.0995 26.8688 48.1638 24.185 48.4269C20.9807 48.7392 18.6542 49.1348 16.3143 49.4831C19.951 51.7185 20.875 52.7008 20.875 52.7008C19.584 52.8485 17.2999 53.0624 16.1914 53.4371C13.3232 54.4119 14.3606 56.0492 16.1376 55.858C17.4266 55.8523 19.6359 55.029 22.2255 54.8094C23.6721 54.5671 27.084 55.9413 28.0349 55.8467C33.341 55.6687 35.0315 54.1185 36.7548 53.704C43.882 51.5992 46.6983 51.0636 53.6777 51.9608C56.1059 52.4813 56.9397 52.6327 58.7589 52.6062C62.0344 52.4283 62.8393 52.1084 64.0804 51.5898C65.9304 50.615 64.9045 49.1481 63.6193 49.2541M39.1657 13.1264C43.9243 15.6514 47.5167 18.0609 51.3301 24.3071C52.9803 27.54 55.1703 30.5514 55.5008 34.2423C55.6487 34.4222 55.2549 35.3345 54.4422 35.4556C53.1974 35.5313 52.7056 34.973 52.0563 34.1269C51.5683 32.995 51.4876 32.4177 51.6874 31.2196C51.1572 30.7615 50.2158 30.0044 50.723 28.9312L51.1245 28.5659C50.456 28.1324 49.5012 27.2901 49.4724 26.4062C48.7136 25.9103 49.044 25.174 48.9767 24.4074C44.9866 19.5392 44.2854 17.6218 39.5807 14.4778C38.647 13.628 36.4551 12.7062 35.8845 11.932L39.1676 13.1245L39.1657 13.1264ZM30.3959 18.0382C31.612 17.124 33.2199 16.0053 34.9432 15.4053C34.7991 15.3996 37.0986 14.3775 36.0267 16.6621C35.4311 17.317 34.8894 18.1252 32.7877 19.5903C32.0692 20.0956 31.4372 20.3739 31.3354 21.6004C31.3872 22.5884 32.3516 23.1203 33.8712 22.2137C35.2717 20.9039 36.5357 19.6281 38.4568 18.9448C39.5288 18.5625 40.449 19.047 39.6364 19.9631C37.3926 22.9159 30.9915 26.022 31.0433 27.1993C30.9108 25.263 30.7513 21.0799 30.3979 18.0382M31.0683 27.3185C31.5236 31.1704 34.4379 28.6132 34.4379 28.6132C37.771 26.6939 38.6374 24.2143 42.4777 23.3758C44.4334 22.8894 44.5717 24.273 44.5717 24.273C44.9405 25.4219 40.6507 27.945 36.359 30.171L33.2987 32.0959C32.9375 32.4082 32.2152 35.0638 35.3927 34.284C38.1264 32.8171 41.0734 31.5603 43.3883 29.8719C45.1903 28.8971 46.0624 27.964 47.5398 28.3406C48.3946 28.3406 48.5176 29.5463 48.0162 30.3072C44.6043 33.2808 38.9217 35.8001 37.917 36.3661L31.101 36.9036C31.101 36.9036 30.9262 28.2876 31.0664 27.3204" fill="#F49800"/>
</g>
<defs>
<clipPath id="clip0_10_6">
<rect width="67" height="78" fill="white"/>
</clipPath>
</defs>
</svg>
