<svg width="52" height="65" viewBox="0 0 52 65" fill="none" xmlns="http://www.w3.org/2000/svg">
<path d="M50.0111 8.12706C48.9895 7.9314 48.0037 8.60436 47.8138 9.62708L45.9034 19.9169C45.8317 20.303 45.4949 20.583 45.1022 20.583V20.583V20.583C45.0672 20.583 45.0356 20.5622 45.0218 20.5301L40.7813 10.6861C40.5121 10.0613 40.3733 9.38822 40.3733 8.70796V5C40.3733 2.23858 38.1348 0 35.3733 0H16.6281C13.8667 0 11.6281 2.23858 11.6281 5V8.70797C11.6281 9.38822 11.4893 10.0613 11.2202 10.6861L6.97975 20.53C6.96592 20.5621 6.9343 20.5829 6.89933 20.5829V20.5829V20.5829C6.50666 20.5829 6.16983 20.3029 6.09815 19.9168L4.18761 9.627C3.99772 8.60426 3.01191 7.93131 1.99026 8.127V8.127C0.976767 8.32113 0.310359 9.29737 0.498747 10.3119L2.79927 22.7015C2.98115 23.681 3.83573 24.3915 4.83199 24.3915V24.3915C5.97382 24.3915 6.89945 25.3171 6.89945 26.459V60C6.89945 62.7614 9.13803 65 11.8995 65H40.1022C42.8636 65 45.1022 62.7614 45.1022 60V26.459C45.1022 25.3171 46.0278 24.3915 47.1697 24.3915V24.3915C48.1659 24.3915 49.0205 23.681 49.2024 22.7015L51.5027 10.312C51.6911 9.29739 51.0246 8.32116 50.0111 8.12706V8.12706ZM15.3781 6.02088C15.3781 4.79907 16.3686 3.80859 17.5904 3.80859H34.4109C35.6327 3.80859 36.6232 4.79907 36.6232 6.02088V6.02088C36.6232 7.24269 35.6327 8.23316 34.4109 8.23316H17.5904C16.3686 8.23316 15.3781 7.24269 15.3781 6.02088V6.02088ZM13.6176 14.6227C14.2923 13.0564 15.8343 12.0418 17.5397 12.0418H34.4617C36.1671 12.0418 37.7091 13.0564 38.3838 14.6227V14.6227C39.5981 17.4417 37.531 20.5829 34.4617 20.5829H17.5397C14.4704 20.5829 12.4033 17.4417 13.6176 14.6227V14.6227ZM41.3521 56.1914C41.3521 58.9528 39.1135 61.1914 36.3521 61.1914H15.6493C12.8879 61.1914 10.6493 58.9528 10.6493 56.1914V38.0501C10.6493 35.2887 12.8879 33.0501 15.6493 33.0501H28.888C29.9398 33.0501 30.7923 32.1975 30.7923 31.1458V31.1458C30.7923 30.0941 29.9398 29.2415 28.888 29.2415H13.0743C11.735 29.2415 10.6493 28.1558 10.6493 26.8165V26.8165C10.6493 25.4772 11.735 24.3915 13.0743 24.3915H38.9271C40.2664 24.3915 41.3521 25.4772 41.3521 26.8165V26.8165C41.3521 28.1558 40.2664 29.2415 38.9271 29.2415H36.4466C35.3949 29.2415 34.5423 30.0941 34.5423 31.1458V31.1458C34.5423 32.1975 35.3949 33.0501 36.4466 33.0501H37.9472C39.8277 33.0501 41.3521 34.5745 41.3521 36.455V56.1914Z" fill="#42569B"/>
</svg>
