<svg width="24" height="23" viewBox="0 0 24 23" fill="none" xmlns="http://www.w3.org/2000/svg">
<path fill-rule="evenodd" clip-rule="evenodd" d="M3.68788 1.38352C5.10771 -0.0281462 7.44571 0.222687 8.63455 1.81169L10.1069 3.77635C11.0752 5.06902 10.9889 6.87502 9.83971 8.01719L9.56205 8.29485C9.53056 8.41141 9.52736 8.53381 9.55271 8.65185C9.62621 9.12785 10.024 10.1359 11.69 11.7925C13.356 13.4492 14.371 13.8459 14.854 13.9205C14.9758 13.945 15.1014 13.9414 15.2215 13.91L15.6975 13.4364C16.7195 12.4214 18.2875 12.2312 19.5522 12.9184L21.7805 14.1317C23.6904 15.1677 24.1722 17.7624 22.6089 19.3175L20.951 20.9649C20.4284 21.484 19.726 21.9169 18.8697 21.9974C16.758 22.1945 11.8382 21.9425 6.66638 16.801C1.83988 12.0014 0.913547 7.81535 0.795714 5.75269C0.73738 4.70969 1.22971 3.82769 1.85738 3.20469L3.68788 1.38352ZM7.23455 2.86052C6.64305 2.07069 5.54171 2.00769 4.92105 2.62485L3.08938 4.44485C2.70438 4.82752 2.52005 5.24985 2.54338 5.65352C2.63671 7.29269 3.38338 11.0692 7.90071 15.5609C12.6397 20.2719 17.0159 20.413 18.7075 20.2544C19.0529 20.2229 19.3959 20.0432 19.7167 19.7247L21.3734 18.0762C22.0477 17.4065 21.8995 16.1862 20.9452 15.6682L18.7169 14.456C18.1009 14.1224 17.3799 14.232 16.9319 14.6777L16.401 15.2062L15.7827 14.5855C16.401 15.2062 16.3999 15.2074 16.3987 15.2074L16.3975 15.2097L16.394 15.2132L16.3859 15.2202L16.3684 15.2365C16.3191 15.2822 16.2661 15.3236 16.2097 15.3602C16.1164 15.422 15.9927 15.4909 15.8375 15.548C15.5225 15.6659 15.1049 15.7289 14.5892 15.6495C13.5777 15.4944 12.2372 14.8049 10.4557 13.0339C8.67538 11.2629 7.98005 9.93052 7.82371 8.92019C7.74321 8.40452 7.80738 7.98685 7.92638 7.67185C7.99187 7.4946 8.08564 7.32913 8.20405 7.18185L8.24138 7.14102L8.25771 7.12352L8.26471 7.11652L8.26821 7.11302L8.27055 7.11069L8.60655 6.77702C9.10588 6.27885 9.17588 5.45402 8.70571 4.82519L7.23455 2.86052Z" fill="#432407"/>
</svg>
