<svg width="20" height="19" viewBox="0 0 20 19" fill="none" xmlns="http://www.w3.org/2000/svg">
<path d="M8.57297 1.35577C9.19212 0.0270974 11.0813 0.0270965 11.7005 1.35577L13.1394 4.4436C13.3908 4.98311 13.9025 5.35492 14.4933 5.4273L17.8746 5.84158C19.3296 6.01983 19.9134 7.81657 18.8411 8.816L16.349 11.1387C15.9136 11.5445 15.7181 12.1461 15.8319 12.7303L16.4828 16.0742C16.7628 17.513 15.2344 18.6235 13.9526 17.9125L10.9735 16.2601C10.453 15.9714 9.82044 15.9714 9.29993 16.2601L6.32087 17.9125C5.03899 18.6235 3.51059 17.513 3.79067 16.0742L4.44157 12.7303C4.55529 12.1461 4.35982 11.5445 3.9244 11.1387L1.43234 8.816C0.360026 7.81657 0.943822 6.01983 2.39879 5.84158L5.78013 5.4273C6.37093 5.35492 6.88268 4.98311 7.13408 4.4436L8.57297 1.35577Z" fill="#FFB547"/>
</svg>
