<svg width="19" height="19" viewBox="0 0 19 19" fill="none" xmlns="http://www.w3.org/2000/svg">
<path d="M8.44043 1.56738C8.88013 0.623789 10.2214 0.62379 10.6611 1.56738L12.1006 4.65527C12.4249 5.35085 13.0849 5.83049 13.8467 5.92383L17.2275 6.33789C18.2608 6.46449 18.6756 7.74043 17.9141 8.4502L15.4219 10.7725C14.8603 11.2959 14.6082 12.0726 14.7549 12.8262L15.4062 16.1699C15.6049 17.1915 14.5196 17.9801 13.6094 17.4756L10.6299 15.8232C9.95852 15.4509 9.14304 15.4509 8.47168 15.8232L5.49219 17.4756C4.58197 17.9801 3.49665 17.1915 3.69531 16.1699L4.34668 12.8262C4.49336 12.0726 4.2413 11.2959 3.67969 10.7725L1.1875 8.4502C0.425965 7.74043 0.840737 6.46449 1.87402 6.33789L5.25488 5.92383C6.0167 5.83049 6.67662 5.35085 7.00098 4.65527L8.44043 1.56738Z" stroke="#FFB547"/>
</svg>
