<svg width="70" height="71" viewBox="0 0 70 71" fill="none" xmlns="http://www.w3.org/2000/svg">
<path d="M59.3913 39.2554H67.3379C65.8716 49.5869 58.0689 58.1918 47.4536 61.9645V67.5609H23.2984V61.9645C12.683 58.1918 4.88032 49.5909 3.41406 39.2554H59.3913ZM59.3913 39.2554C61.268 39.2484 63.0824 38.5731 64.5165 37.3479C65.9505 36.1226 66.9127 34.4256 67.2344 32.5542C67.556 30.6829 67.2166 28.7567 66.2757 27.1132C65.3347 25.4698 63.8523 24.214 62.0881 23.566M59.3913 39.2554H59.3474M62.0881 23.566C61.2332 23.2546 60.3063 23.0808 59.3474 23.0808M62.0881 23.566C65.4282 19.3889 65.0966 12.7694 60.9695 9.38895C58.9857 7.76558 56.4464 7.00537 53.9093 7.27528C51.3722 7.54518 49.0446 8.82312 47.4376 10.8285C46.267 4.75493 40.4539 2.11847 34.4531 3.30731C33.0257 3.58818 31.667 4.15099 30.4547 4.96359C29.2423 5.77618 28.2001 6.82262 27.3875 8.0431C26.5749 9.26358 26.008 10.6342 25.719 12.0765C25.4301 13.5189 25.4248 15.0047 25.7035 16.4492C23.3104 11.6494 17.8728 7.97368 12.0238 10.9538C7.27746 13.376 5.21192 19.8135 7.60507 24.6173M7.60507 24.6173C4.8963 25.7698 3.41406 28.4831 3.41406 31.6412C3.41406 35.8466 6.78205 39.2554 10.9371 39.2554M7.60507 24.6173C8.7517 24.1321 11.9838 22.9999 15.7753 26.0003M36.8502 22.3974C38.7777 21.5064 40.9759 21.4267 42.9613 22.1759C44.9468 22.9251 46.5569 24.4419 47.4376 26.3925" stroke="#42569B" stroke-width="5" stroke-linecap="round" stroke-linejoin="round"/>
</svg>
