<svg width="55" height="61" viewBox="0 0 55 61" fill="none" xmlns="http://www.w3.org/2000/svg">
<path d="M9.0994 58.7153L0.577076 3.08787C0.537198 2.80428 0.562024 2.51592 0.649886 2.24214C0.737748 1.96836 0.886614 1.7155 1.08649 1.50054C1.28637 1.28557 1.53262 1.11346 1.80874 0.995783C2.08485 0.8781 2.38443 0.817561 2.68737 0.818229H52.5272C52.8305 0.816952 53.1306 0.877043 53.4072 0.994458C53.6839 1.11187 53.9307 1.28389 54.1311 1.49893C54.3314 1.71397 54.4807 1.96704 54.5688 2.24112C54.657 2.5152 54.6819 2.80392 54.642 3.08787L46.1196 58.7153C46.0498 59.196 45.7963 59.6361 45.4068 59.9525C45.0172 60.269 44.5186 60.44 44.0048 60.4335H11.2119C10.7006 60.4324 10.2066 60.2585 9.8191 59.9434C9.43165 59.6283 9.17637 59.1927 9.0994 58.7153ZM11.7621 52.9028C11.8522 53.5586 12.461 54.0461 13.1599 54.0461H31.6823C34.1541 54.0461 36.2549 52.2401 36.6257 49.7963L42.12 13.5929H8.76121C7.20555 13.5929 6.01062 14.9066 6.21353 16.3501L11.7621 52.9028ZM40.7598 52.566C40.6415 53.3448 41.2444 54.0461 42.0321 54.0461V54.0461C42.731 54.0461 43.3397 53.5586 43.4299 52.9007L48.9988 16.3501C49.0492 16.0241 49.0282 15.6917 48.9371 15.3736C48.8459 15.0555 48.6865 14.7585 48.4688 14.501C48.251 14.2434 47.9796 14.0309 47.6713 13.8765V13.8765C47.1706 13.6258 46.7481 13.1309 46.832 12.5772L47.5761 7.66334C47.6182 7.38653 47.6021 7.10462 47.5287 6.83369C47.4554 6.56276 47.3263 6.30813 47.1487 6.08433C46.9712 5.86052 46.7487 5.67193 46.494 5.52932C46.2393 5.38671 45.9573 5.29288 45.6642 5.25318C45.3711 5.21347 45.0726 5.22868 44.7857 5.29793C44.4988 5.36717 44.2292 5.48911 43.9922 5.65676C43.7552 5.82442 43.5555 6.03451 43.4045 6.27505C43.2534 6.51559 43.1541 6.78186 43.112 7.05867L42.12 13.5929H46.4511V13.5929C46.5729 13.5929 46.6609 13.7041 46.6427 13.8246L40.7598 52.566Z" fill="#42569B"/>
</svg>
