<svg width="50" height="74" viewBox="0 0 50 74" fill="none" xmlns="http://www.w3.org/2000/svg">
<path d="M4.59678 14.1006H44.8349M20.716 14.1006L12.5964 2.72329M13.3931 14.1661C9.65519 18.2696 3.45086 27.2514 3.18894 30.5363C2.82324 34.7503 2.62664 38.9772 2.59961 43.2069C2.59961 47.0266 2.80151 55.0917 3.07435 58.7805C3.69642 67.0747 9.76432 69.694 17.371 70.5234C19.7665 70.7853 22.2003 70.9599 24.6613 70.9599C27.1168 70.9599 29.5505 70.7853 31.946 70.5234C39.5527 69.694 45.6206 67.0747 46.2427 58.7805C46.5155 55.0972 46.7229 47.0266 46.7229 43.2069C46.6959 38.9772 46.4993 34.7503 46.1336 30.5363C45.8716 27.2514 39.6619 18.2696 35.924 14.1661" stroke="#42569B" stroke-width="5" stroke-linecap="round" stroke-linejoin="round"/>
<path d="M24.7165 52.4288C31.0518 52.4288 34.6205 48.8656 34.6205 42.5248C34.6205 36.1841 31.0518 32.6208 24.7165 32.6208C18.3812 32.6208 14.8125 36.1895 14.8125 42.5303C14.8125 48.871 18.3758 52.4343 24.7165 52.4343" stroke="#42569B" stroke-width="5" stroke-linecap="round" stroke-linejoin="round"/>
</svg>
